<?xml version="1.0" encoding="utf-8"?>
<!-- Generator: Adobe Illustrator 25.1.0, SVG Export Plug-In . SVG Version: 6.00 Build 0)  -->
<svg id="Layer_1" xmlns="http://www.w3.org/2000/svg" x="0px" y="0px"
	 viewBox="0 0 149.27 157.69">
<style type="text/css">
	.st0{fill:#8C2243;}
	.st1{fill:none;stroke:#F2F2F2;stroke-width:0.25;stroke-miterlimit:10;}
</style>
<g>
	<path class="st0" d="M103.82,17.82c0,0,7.9,13,11.83,25.04c2.87,8.77,1.91,17.64,2.72,17.57c1.02-0.08,2.26-3.59,2.39-7.43
		c0.12-3.41-0.76-7.05-1.63-9.05c2.97,3.67,4.21,6.76,5.27,15.4c1.07,8.64-2.3,16.79-0.61,17.51c1.69,0.72,5.39-13.52,3.11-24.78
		c0,0,1.83,8.2,1.47,14.67c-0.36,6.47-3.17,14.75-1.47,14.74c1.7-0.01,5.54-16.87,3.47-30.03c0,0,1.72,6.04,1.6,13.63
		c-0.12,7.59-2.55,12.56-1.15,13.12c1.41,0.56,5.86-11.3,3.23-27.01c0,0,1.67,5.09,1.8,10.41c0.12,4.66-1.91,9.49-0.2,9.75
		C137.38,71.61,147.72,33.34,103.82,17.82"/>
	<path class="st1" d="M103.82,17.82c0,0,7.9,13,11.83,25.04c2.87,8.77,1.91,17.64,2.72,17.57c1.02-0.08,2.26-3.59,2.39-7.43
		c0.12-3.41-0.76-7.05-1.63-9.05c2.97,3.67,4.21,6.76,5.27,15.4c1.07,8.64-2.3,16.79-0.61,17.51c1.69,0.72,5.39-13.52,3.11-24.78
		c0,0,1.83,8.2,1.47,14.67c-0.36,6.47-3.17,14.75-1.47,14.74c1.7-0.01,5.54-16.87,3.47-30.03c0,0,1.72,6.04,1.6,13.63
		c-0.12,7.59-2.55,12.56-1.15,13.12c1.41,0.56,5.86-11.3,3.23-27.01c0,0,1.67,5.09,1.8,10.41c0.12,4.66-1.91,9.49-0.2,9.75
		C137.38,71.61,147.72,33.34,103.82,17.82z"/>
	<path class="st0" d="M52.12,15.06c0,0,14.78,3.61,26.07,9.34c8.23,4.17,13.82,11.13,14.35,10.5c0.67-0.78-0.94-4.14-3.57-6.94
		c-2.33-2.49-5.52-4.45-7.55-5.25c4.7,0.49,7.75,1.8,14.62,7.16c6.87,5.36,10.25,13.5,11.95,12.81c1.7-0.69-5.75-13.37-15.32-19.72
		c0,0,7.1,4.5,11.42,9.33c4.32,4.83,8.19,12.67,9.38,11.46c1.2-1.21-8.01-15.84-18.79-23.69c0,0,5.49,3.06,10.77,8.51
		s7.07,10.68,8.47,10.08c1.39-0.6-3.85-12.13-16.82-21.38c0,0,4.78,2.42,8.64,6.09c3.38,3.21,5.36,8.07,6.76,7.04
		C113.88,29.37,94.13-5.01,52.12,15.06"/>
	<path class="st1" d="M52.12,15.06c0,0,14.78,3.61,26.07,9.34c8.23,4.17,13.82,11.13,14.35,10.5c0.67-0.78-0.94-4.14-3.57-6.94
		c-2.33-2.49-5.52-4.45-7.55-5.25c4.7,0.49,7.75,1.8,14.62,7.16c6.87,5.36,10.25,13.5,11.95,12.81c1.7-0.69-5.75-13.37-15.32-19.72
		c0,0,7.1,4.5,11.42,9.33c4.32,4.83,8.19,12.67,9.38,11.46c1.2-1.21-8.01-15.84-18.79-23.69c0,0,5.49,3.06,10.77,8.51
		s7.07,10.68,8.47,10.08c1.39-0.6-3.85-12.13-16.82-21.38c0,0,4.78,2.42,8.64,6.09c3.38,3.21,5.36,8.07,6.76,7.04
		C113.88,29.37,94.13-5.01,52.12,15.06z"/>
	<path class="st0" d="M13.61,49.66c0,0,13-7.9,25.04-11.83c8.77-2.87,17.64-1.91,17.57-2.72c-0.08-1.02-3.59-2.26-7.43-2.39
		c-3.4-0.12-7.05,0.76-9.05,1.63c3.67-2.98,6.76-4.21,15.4-5.27c8.64-1.07,16.79,2.3,17.51,0.61c0.72-1.69-13.52-5.39-24.78-3.11
		c0,0,8.2-1.83,14.67-1.47c6.47,0.36,14.75,3.17,14.74,1.47s-16.87-5.54-30.03-3.47c0,0,6.04-1.72,13.63-1.6
		c7.59,0.12,12.56,2.55,13.12,1.14c0.56-1.41-11.3-5.86-27.02-3.23c0,0,5.09-1.67,10.41-1.8c4.66-0.12,9.49,1.91,9.75,0.2
		C67.4,16.11,29.13,5.77,13.61,49.66"/>
	<path class="st1" d="M13.61,49.66c0,0,13-7.9,25.04-11.83c8.77-2.87,17.64-1.91,17.57-2.72c-0.08-1.02-3.59-2.26-7.43-2.39
		c-3.4-0.12-7.05,0.76-9.05,1.63c3.67-2.98,6.76-4.21,15.4-5.27c8.64-1.07,16.79,2.3,17.51,0.61c0.72-1.69-13.52-5.39-24.78-3.11
		c0,0,8.2-1.83,14.67-1.47c6.47,0.36,14.75,3.17,14.74,1.47s-16.87-5.54-30.03-3.47c0,0,6.04-1.72,13.63-1.6
		c7.59,0.12,12.56,2.55,13.12,1.14c0.56-1.41-11.3-5.86-27.02-3.23c0,0,5.09-1.67,10.41-1.8c4.66-0.12,9.49,1.91,9.75,0.2
		C67.4,16.11,29.13,5.77,13.61,49.66z"/>
	<path class="st0" d="M10.85,101.36c0,0,3.61-14.78,9.34-26.07c4.17-8.23,11.13-13.82,10.5-14.35c-0.78-0.66-4.14,0.94-6.94,3.57
		c-2.49,2.33-4.45,5.52-5.25,7.55c0.49-4.7,1.8-7.75,7.16-14.62c5.36-6.87,13.5-10.25,12.81-11.95c-0.69-1.7-13.37,5.75-19.72,15.32
		c0,0,4.5-7.1,9.33-11.41c4.83-4.32,12.67-8.19,11.46-9.38c-1.21-1.2-15.84,8.01-23.69,18.79c0,0,3.06-5.49,8.51-10.77
		c5.45-5.28,10.68-7.07,10.08-8.47c-0.6-1.39-12.13,3.85-21.39,16.82c0,0,2.42-4.78,6.09-8.64c3.21-3.38,8.06-5.36,7.03-6.75
		C25.15,39.6-9.22,59.35,10.85,101.36"/>
	<path class="st1" d="M10.85,101.36c0,0,3.61-14.78,9.34-26.07c4.17-8.23,11.13-13.82,10.5-14.35c-0.78-0.66-4.14,0.94-6.94,3.57
		c-2.49,2.33-4.45,5.52-5.25,7.55c0.49-4.7,1.8-7.75,7.16-14.62c5.36-6.87,13.5-10.25,12.81-11.95c-0.69-1.7-13.37,5.75-19.72,15.32
		c0,0,4.5-7.1,9.33-11.41c4.83-4.32,12.67-8.19,11.46-9.38c-1.21-1.2-15.84,8.01-23.69,18.79c0,0,3.06-5.49,8.51-10.77
		c5.45-5.28,10.68-7.07,10.08-8.47c-0.6-1.39-12.13,3.85-21.39,16.82c0,0,2.42-4.78,6.09-8.64c3.21-3.38,8.06-5.36,7.03-6.75
		C25.15,39.6-9.22,59.35,10.85,101.36z"/>
	<path class="st0" d="M45.45,139.87c0,0-7.9-13-11.83-25.04c-2.87-8.77-1.91-17.64-2.72-17.57c-1.02,0.08-2.26,3.59-2.39,7.43
		c-0.12,3.41,0.76,7.06,1.63,9.05c-2.98-3.67-4.21-6.76-5.27-15.4c-1.07-8.64,2.3-16.79,0.61-17.51
		c-1.69-0.72-5.39,13.52-3.11,24.78c0,0-1.83-8.2-1.47-14.67c0.36-6.47,3.17-14.75,1.47-14.74c-1.7,0.01-5.54,16.87-3.47,30.03
		c0,0-1.72-6.04-1.6-13.63c0.12-7.59,2.55-12.55,1.14-13.12c-1.41-0.56-5.86,11.3-3.23,27.02c0,0-1.67-5.09-1.8-10.41
		c-0.12-4.66,1.91-9.49,0.2-9.75C11.89,86.08,1.56,124.35,45.45,139.87"/>
	<path class="st1" d="M45.45,139.87c0,0-7.9-13-11.83-25.04c-2.87-8.77-1.91-17.64-2.72-17.57c-1.02,0.08-2.26,3.59-2.39,7.43
		c-0.12,3.41,0.76,7.06,1.63,9.05c-2.98-3.67-4.21-6.76-5.27-15.4c-1.07-8.64,2.3-16.79,0.61-17.51
		c-1.69-0.72-5.39,13.52-3.11,24.78c0,0-1.83-8.2-1.47-14.67c0.36-6.47,3.17-14.75,1.47-14.74c-1.7,0.01-5.54,16.87-3.47,30.03
		c0,0-1.72-6.04-1.6-13.63c0.12-7.59,2.55-12.55,1.14-13.12c-1.41-0.56-5.86,11.3-3.23,27.02c0,0-1.67-5.09-1.8-10.41
		c-0.12-4.66,1.91-9.49,0.2-9.75C11.89,86.08,1.56,124.35,45.45,139.87z"/>
	<path class="st0" d="M97.15,142.64c0,0-14.78-3.61-26.07-9.34c-8.23-4.17-13.82-11.13-14.35-10.5c-0.66,0.78,0.94,4.14,3.57,6.94
		c2.33,2.49,5.52,4.45,7.55,5.25c-4.7-0.49-7.75-1.8-14.62-7.16c-6.87-5.36-10.25-13.5-11.95-12.81
		c-1.7,0.69,5.75,13.37,15.32,19.72c0,0-7.1-4.5-11.41-9.33c-4.32-4.83-8.19-12.67-9.38-11.46c-1.2,1.21,8.01,15.84,18.79,23.69
		c0,0-5.49-3.06-10.77-8.51c-5.28-5.45-7.07-10.68-8.47-10.08c-1.39,0.6,3.85,12.13,16.82,21.38c0,0-4.78-2.42-8.64-6.09
		c-3.38-3.21-5.36-8.07-6.75-7.04C35.39,128.33,55.14,162.7,97.15,142.64"/>
	<path class="st1" d="M97.15,142.64c0,0-14.78-3.61-26.07-9.34c-8.23-4.17-13.82-11.13-14.35-10.5c-0.66,0.78,0.94,4.14,3.57,6.94
		c2.33,2.49,5.52,4.45,7.55,5.25c-4.7-0.49-7.75-1.8-14.62-7.16c-6.87-5.36-10.25-13.5-11.95-12.81
		c-1.7,0.69,5.75,13.37,15.32,19.72c0,0-7.1-4.5-11.41-9.33c-4.32-4.83-8.19-12.67-9.38-11.46c-1.2,1.21,8.01,15.84,18.79,23.69
		c0,0-5.49-3.06-10.77-8.51c-5.28-5.45-7.07-10.68-8.47-10.08c-1.39,0.6,3.85,12.13,16.82,21.38c0,0-4.78-2.42-8.64-6.09
		c-3.38-3.21-5.36-8.07-6.75-7.04C35.39,128.33,55.14,162.7,97.15,142.64z"/>
	<path class="st0" d="M135.66,108.03c0,0-13,7.9-25.04,11.83c-8.77,2.87-17.64,1.91-17.57,2.72c0.08,1.02,3.59,2.26,7.43,2.39
		c3.41,0.12,7.05-0.76,9.05-1.63c-3.67,2.98-6.76,4.21-15.4,5.27c-8.64,1.07-16.79-2.3-17.51-0.61c-0.72,1.69,13.52,5.39,24.78,3.11
		c0,0-8.2,1.83-14.67,1.47c-6.47-0.36-14.75-3.17-14.74-1.47c0.01,1.7,16.87,5.54,30.03,3.47c0,0-6.04,1.72-13.63,1.6
		c-7.59-0.12-12.55-2.55-13.12-1.14c-0.56,1.41,11.3,5.86,27.02,3.23c0,0-5.09,1.67-10.41,1.8c-4.66,0.12-9.49-1.91-9.75-0.2
		C81.87,141.59,120.14,151.93,135.66,108.03"/>
	<path class="st1" d="M135.66,108.03c0,0-13,7.9-25.04,11.83c-8.77,2.87-17.64,1.91-17.57,2.72c0.08,1.02,3.59,2.26,7.43,2.39
		c3.41,0.12,7.05-0.76,9.05-1.63c-3.67,2.98-6.76,4.21-15.4,5.27c-8.64,1.07-16.79-2.3-17.51-0.61c-0.72,1.69,13.52,5.39,24.78,3.11
		c0,0-8.2,1.83-14.67,1.47c-6.47-0.36-14.75-3.17-14.74-1.47c0.01,1.7,16.87,5.54,30.03,3.47c0,0-6.04,1.72-13.63,1.6
		c-7.59-0.12-12.55-2.55-13.12-1.14c-0.56,1.41,11.3,5.86,27.02,3.23c0,0-5.09,1.67-10.41,1.8c-4.66,0.12-9.49-1.91-9.75-0.2
		C81.87,141.59,120.14,151.93,135.66,108.03z"/>
	<path class="st0" d="M138.42,56.33c0,0-3.61,14.78-9.34,26.07c-4.17,8.23-11.13,13.82-10.5,14.35c0.78,0.66,4.14-0.94,6.94-3.57
		c2.49-2.33,4.45-5.52,5.25-7.55c-0.49,4.7-1.8,7.75-7.16,14.62c-5.36,6.87-13.5,10.25-12.81,11.95c0.69,1.7,13.37-5.75,19.72-15.32
		c0,0-4.5,7.1-9.33,11.41c-4.83,4.32-12.67,8.19-11.46,9.38c1.21,1.2,15.84-8.01,23.69-18.79c0,0-3.06,5.49-8.51,10.77
		c-5.45,5.28-10.68,7.07-10.08,8.47c0.6,1.39,12.13-3.85,21.38-16.82c0,0-2.42,4.78-6.09,8.64c-3.21,3.38-8.06,5.36-7.03,6.75
		C124.12,118.09,158.49,98.34,138.42,56.33"/>
	<path class="st1" d="M138.42,56.33c0,0-3.61,14.78-9.34,26.07c-4.17,8.23-11.13,13.82-10.5,14.35c0.78,0.66,4.14-0.94,6.94-3.57
		c2.49-2.33,4.45-5.52,5.25-7.55c-0.49,4.7-1.8,7.75-7.16,14.62c-5.36,6.87-13.5,10.25-12.81,11.95c0.69,1.7,13.37-5.75,19.72-15.32
		c0,0-4.5,7.1-9.33,11.41c-4.83,4.32-12.67,8.19-11.46,9.38c1.21,1.2,15.84-8.01,23.69-18.79c0,0-3.06,5.49-8.51,10.77
		c-5.45,5.28-10.68,7.07-10.08,8.47c0.6,1.39,12.13-3.85,21.38-16.82c0,0-2.42,4.78-6.09,8.64c-3.21,3.38-8.06,5.36-7.03,6.75
		C124.12,118.09,158.49,98.34,138.42,56.33z"/>
</g>
</svg>
