<?xml version="1.0" encoding="utf-8"?>
<svg xmlns="http://www.w3.org/2000/svg"
     viewBox="0 0 149.3 157.7" xml:space="preserve">
<style type="text/css">
	.st0 {
    fill: #A7A9AC;
  }

  .st26 {
    fill: #A41737;
  }

  .st27 {
    fill: #A11A40;
  }

  .st28 {
    fill: #E6B122;
  }
</style>
  <g>
		<path class="st26" d="M96.6,90.4c0.7,0.4,1.3,0.7,1.9,1.1c0.7,0.4,1,0.3,1.5-0.4c0.4-0.7,0.8-1.4,1.2-2.1c0.4-0.7,0.3-1.1-0.4-1.5
			c-0.9-0.5-1.9-1.1-2.8-1.6c-0.8-0.5-1-0.9-0.7-1.8c0.7-1.8,1.2-3.6,1.5-5.4c0.1-0.9,0.5-1.2,1.4-1.2c1.1,0,2.2,0,3.3,0
			c0.8,0,1.1-0.3,1.1-1.1c0-0.9,0-1.7,0-2.6c0-0.7-0.3-0.9-0.9-0.9c-1.1,0-2.3,0-3.4,0c-0.9,0-1.3-0.3-1.4-1.2
			c-0.3-1.9-0.8-3.8-1.5-5.6c-0.3-0.7-0.1-1.2,0.6-1.7c1-0.6,1.9-1.1,2.9-1.7c0.7-0.4,0.8-0.7,0.4-1.4c-0.4-0.7-0.8-1.5-1.3-2.2
			c-0.4-0.7-0.7-0.7-1.4-0.4c-0.9,0.5-1.9,1.1-2.8,1.6c-0.8,0.5-1.3,0.4-1.9-0.4c-1.2-1.5-2.5-2.8-4-4c-0.7-0.6-0.8-1.1-0.4-1.9
			c0.6-1,1.1-1.9,1.7-2.9c0.4-0.6,0.3-1-0.4-1.4c-0.7-0.4-1.5-0.9-2.2-1.3c-0.7-0.4-1-0.3-1.4,0.4c-0.6,1-1.1,1.9-1.7,2.9
			c-0.4,0.7-0.9,0.9-1.7,0.6c-1.7-0.7-3.5-1.2-5.3-1.4c-1.1-0.2-1.4-0.5-1.4-1.6c0-1.1,0-2.1,0-3.2c0-0.7-0.3-0.9-0.9-0.9
			c-0.9,0-1.8,0-2.7,0c-0.7,0-0.9,0.3-1,0.9c0,1.1,0,2.2,0,3.3c0,1-0.3,1.3-1.3,1.5c-1.9,0.3-3.7,0.8-5.5,1.5
			c-0.7,0.3-1.2,0.1-1.7-0.6c-0.6-1-1.1-1.9-1.7-2.9c-0.4-0.7-0.8-0.8-1.4-0.4c-0.7,0.4-1.5,0.8-2.2,1.3c-0.6,0.4-0.7,0.8-0.4,1.4
			c0.5,0.9,1.1,1.9,1.6,2.8c0.5,0.8,0.4,1.3-0.4,1.9c-1.5,1.2-2.8,2.5-4,4c-0.6,0.7-1.1,0.8-1.9,0.4c-1-0.6-1.9-1.1-2.9-1.7
			c-0.6-0.3-1-0.3-1.3,0.3c-0.5,0.8-0.9,1.5-1.3,2.3c-0.3,0.6-0.2,1,0.4,1.3c1,0.6,1.9,1.1,2.9,1.7c0.8,0.4,1,0.9,0.6,1.7
			c-0.7,1.8-1.2,3.7-1.5,5.6c-0.1,0.8-0.5,1.1-1.3,1.1c-1.1,0-2.3,0-3.4,0c-0.7,0-1,0.3-1,1c0,0.8,0,1.7,0,2.5
			c0,0.8,0.3,1.1,1.1,1.1c1.1,0,2.1,0,3.2,0c1,0,1.3,0.3,1.5,1.3c0.3,1.9,0.8,3.7,1.5,5.5c0.3,0.7,0.1,1.2-0.6,1.7
			c-1,0.6-2,1.1-2.9,1.7c-0.6,0.4-0.7,0.7-0.4,1.4c0.4,0.8,0.9,1.5,1.3,2.3c0.3,0.6,0.7,0.7,1.3,0.3c0.6-0.4,1.3-0.7,2-1.1
			c-0.1,0.9-0.2,1.8-0.3,2.6c0,0.4-0.5,0.6-0.9,0.8c-1.5,0.7-3.2,0.2-4.1-1.2c-0.6-0.9-1.1-1.9-1.6-2.8c-0.8-1.5-0.3-3.3,1.2-4.2
			c0.7-0.4,1.3-0.8,2-1.2c0.3-0.2,0.4-0.3,0.3-0.6c-0.4-1.2-0.7-2.3-1-3.6c-0.1-0.4-0.2-0.4-0.5-0.4c-0.7,0-1.5,0-2.2,0
			c-1.9,0-3.2-1.4-3.2-3.3c0-1,0-1.9,0-2.9c0-1.8,1.4-3.2,3.2-3.2c0.8,0,1.5,0,2.3,0c0.3,0,0.5,0,0.5-0.4c0.2-1.3,0.6-2.5,1-3.7
			c0.1-0.3,0-0.4-0.2-0.5c-0.7-0.4-1.3-0.7-2-1.1c-1.7-1-2.2-2.8-1.2-4.5c0.5-0.8,1-1.7,1.5-2.5c0.9-1.6,2.8-2.1,4.4-1.2
			c0.7,0.4,1.4,0.8,2,1.2c0.3,0.2,0.4,0.1,0.6-0.1c0.8-1,1.7-1.8,2.7-2.7c0.3-0.2,0.2-0.4,0.1-0.6c-0.4-0.6-0.7-1.3-1.1-1.9
			c-0.9-1.7-0.4-3.5,1.2-4.5c0.8-0.5,1.6-1,2.5-1.4c1.7-0.9,3.5-0.4,4.5,1.2c0.4,0.6,0.7,1.3,1.1,1.9c0.1,0.2,0.2,0.4,0.6,0.3
			c1.2-0.4,2.4-0.8,3.7-1c0.3-0.1,0.4-0.2,0.4-0.5c0-0.8,0-1.6,0-2.3c0-1.8,1.4-3.2,3.2-3.2c1,0,1.9,0,2.9,0c1.8,0,3.2,1.4,3.2,3.2
			c0,0.8,0,1.6,0,2.3c0,0.3,0.1,0.4,0.4,0.5c1.2,0.2,2.5,0.5,3.7,1c0.3,0.1,0.4,0,0.6-0.2c0.4-0.6,0.7-1.3,1.1-1.9
			c1-1.6,2.8-2.2,4.5-1.2c0.8,0.5,1.7,1,2.5,1.5c1.6,1,2.1,2.8,1.2,4.4c-0.4,0.7-0.7,1.3-1.1,2c-0.2,0.3-0.2,0.4,0.1,0.7
			c1,0.8,1.8,1.7,2.7,2.7c0.2,0.3,0.4,0.2,0.6,0.1c0.6-0.4,1.3-0.8,2-1.1c1.6-0.9,3.4-0.4,4.4,1.2c0.5,0.8,1,1.7,1.5,2.6
			c0.9,1.6,0.4,3.4-1.2,4.4c-0.6,0.4-1.3,0.8-2,1.1c-0.3,0.1-0.4,0.3-0.2,0.6c0.4,1.2,0.7,2.3,1,3.6c0.1,0.4,0.3,0.5,0.6,0.4
			c0.8,0,1.5,0,2.3,0c1.8,0,3.1,1.4,3.1,3.2c0,1,0,2.1,0,3.1c0,1.6-1.3,3-2.9,3.1c-0.9,0.1-1.7,0-2.6,0c-0.3,0-0.5,0.1-0.5,0.4
			c-0.2,1.2-0.5,2.4-1,3.6c-0.1,0.4,0,0.5,0.3,0.6c0.6,0.3,1.2,0.7,1.9,1.1c1.7,1,2.2,2.8,1.2,4.5c-0.5,0.9-1,1.8-1.5,2.6
			c-1.1,1.7-3.4,2-4.7,0.7c-0.2-0.2-0.3-0.4-0.3-0.7C96.8,91.9,96.7,91.2,96.6,90.4z"/>
    <path class="st26" d="M80.9,84.6c1-0.7,1.8-1.4,2.5-2.2c0.2-0.2,0.3-0.2,0.6-0.2c5.1,0.3,9.4,3.9,10.4,8.9
			c0.1,0.7,0.1,0.7-0.6,0.7c-0.6,0-1.3,0.2-1.6-0.1c-0.4-0.3-0.3-1-0.5-1.5c-1.2-3.3-4.5-5.5-8.2-5.6C82.6,84.6,81.9,84.6,80.9,84.6
			z"/>
    <path class="st26" d="M68.7,84.6c-1.3,0.1-2.4,0-3.5,0.1c-3.6,0.4-6.6,3.1-7.4,6.6c-0.1,0.4-0.2,0.6-0.7,0.5c-0.5,0-0.9,0-1.4,0
			c-0.5,0.1-0.5-0.1-0.5-0.5c0.3-1.9,1.1-3.6,2.3-5c2.1-2.5,4.9-3.8,8.1-4.1c0.2,0,0.4,0,0.5,0.2C66.9,83.3,67.7,83.9,68.7,84.6z"/>
    <path class="st26" d="M115,116.9c-0.3-0.1-0.5-0.1-0.8-0.1c-6.6,0-13.2,0-19.8,0c-0.2,0-0.4,0-0.7,0c0.3-1.4,0.5-2.7,0.7-4.1
			c0.7-4.9,1.4-9.7,2.1-14.6c0.3-2.4-1.1-3.9-3.5-3.9c-12.1,0-24.2,0-36.4,0c-2.5,0-3.8,1.6-3.5,4.1c0.9,6.2,1.8,12.4,2.7,18.6
			c-0.2,0-0.4,0-0.6,0c-6.6,0-13.2,0-19.8,0c-0.3,0-0.6,0-0.8,0.1c-0.6,0.2-0.9,0.6-0.9,1.2c0,0.5,0.5,1,1.1,1.1c0.2,0,0.4,0,0.7,0
			c26.3,0,52.5,0,78.8,0c0.2,0,0.4,0,0.7,0c0.6-0.1,1-0.6,1.1-1.1C116,117.6,115.6,117.1,115,116.9z M89.9,116.8c-2.7,0-5.4,0-8,0
			c-7.3,0-14.5,0-21.8,0c-1.4,0-1.9-0.4-2.1-1.8c-0.8-5.7-1.6-11.4-2.5-17.2c-0.2-1.1,0.1-1.4,1.2-1.4c6,0,12.1,0,18.1,0
			c6,0,12,0,18.1,0c1.1,0,1.4,0.3,1.2,1.4c-0.8,5.8-1.7,11.7-2.5,17.5C91.5,116.3,90.8,116.8,89.9,116.8z"/>
    <path class="st26" d="M74.8,66.2c-4.9,0-8.9,4-8.9,9c0,5,4,8.9,8.9,8.9c5,0,8.9-4,8.9-8.9C83.8,70.2,79.7,66.2,74.8,66.2z
			 M74.8,81.7c-3.6,0-6.6-3-6.5-6.6c0-3.6,3-6.6,6.6-6.6c3.6,0,6.6,3,6.5,6.6C81.4,78.7,78.4,81.7,74.8,81.7z"/>
    <path class="st27" d="M74.8,102.5c-2.3,0-4.2,1.9-4.2,4.2c0,2.3,1.8,4.2,4.1,4.2c2.3,0,4.2-1.8,4.2-4.1
			C79,104.4,77.1,102.5,74.8,102.5z M74.8,108.5c-1,0-1.8-0.8-1.8-1.7c0-1,0.8-1.8,1.8-1.8c1,0,1.8,0.8,1.8,1.8
			C76.6,107.7,75.8,108.5,74.8,108.5z"/>
    <polygon class="st0" points="32.6,69.6 31.3,69.7 32,68.6 31.5,68.3 30.9,69.5 30.3,68.3 29.8,68.6 30.5,69.7 29.2,69.6
			29.2,70.2 30.5,70.1 29.8,71.2 30.3,71.5 30.9,70.3 31.6,71.5 32,71.2 31.3,70.1 32.6,70.2 		"/>
    <polygon class="st0" points="63.5,34.9 62.3,34.9 62.9,33.9 62.5,33.7 62,34.7 61.4,33.7 61,34 61.6,34.9 60.5,34.8 60.5,35.3
			61.6,35.3 61,36.2 61.4,36.5 62,35.5 62.5,36.5 63,36.2 62.3,35.3 63.5,35.4 		"/>
    <polygon class="st0" points="29.5,34.3 28.6,34.4 29.1,33.6 28.7,33.4 28.3,34.2 27.9,33.4 27.6,33.7 28,34.4 27.2,34.3
			27.2,34.7 28.1,34.7 27.6,35.4 27.9,35.6 28.3,34.8 28.8,35.6 29.1,35.4 28.6,34.7 29.5,34.7 		"/>
    <path class="st28" d="M98.2,45.1c-1,0-1.8,0.8-1.8,1.8c0,1,0.8,1.8,1.8,1.8c1,0,1.8-0.8,1.8-1.8C100,45.9,99.2,45.1,98.2,45.1z
			 M98.2,47.7c-0.5,0-0.9-0.4-0.9-0.9c0-0.5,0.4-0.9,0.9-0.9s0.9,0.4,0.9,0.9C99.1,47.3,98.7,47.7,98.2,47.7z"/>
    <path class="st28" d="M119.1,34.5c-0.7,0-1.3,0.6-1.3,1.3c0,0.7,0.6,1.3,1.3,1.3c0.7,0,1.3-0.6,1.3-1.3
			C120.4,35,119.8,34.5,119.1,34.5z M119.1,36.3c-0.3,0-0.6-0.3-0.6-0.6s0.3-0.6,0.6-0.6s0.6,0.3,0.6,0.6S119.5,36.3,119.1,36.3z"/>
    <path class="st28" d="M86.5,30.2c-0.7,0-1.3,0.6-1.3,1.3c0,0.7,0.6,1.3,1.3,1.3c0.7,0,1.3-0.6,1.3-1.3
			C87.7,30.7,87.2,30.2,86.5,30.2z M86.5,32c-0.3,0-0.6-0.3-0.6-0.6s0.3-0.6,0.6-0.6c0.3,0,0.6,0.3,0.6,0.6S86.8,32,86.5,32z"/>
    <path class="st28" d="M42,50.2c-0.7,0-1.3,0.6-1.3,1.3c0,0.7,0.6,1.3,1.3,1.3c0.7,0,1.3-0.6,1.3-1.3C43.3,50.8,42.7,50.2,42,50.2z
			 M42,52.1c-0.3,0-0.6-0.3-0.6-0.6s0.3-0.6,0.6-0.6s0.6,0.3,0.6,0.6S42.3,52.1,42,52.1z"/>
    <path class="st26" d="M118.4,119.2h1.7c0.6,0,1.2-0.5,1.2-1.2v0c0-0.6-0.5-1.2-1.2-1.2h-1.7c-0.6,0-1.2,0.5-1.2,1.2v0
			C117.2,118.7,117.7,119.2,118.4,119.2z"/>
    <circle class="st26" cx="123.7" cy="118" r="1.1"/>
    <path class="st26" d="M31.2,119.2h-1.7c-0.6,0-1.2-0.5-1.2-1.2v0c0-0.6,0.5-1.2,1.2-1.2h1.7c0.6,0,1.2,0.5,1.2,1.2v0
			C32.4,118.7,31.9,119.2,31.2,119.2z"/>
    <circle class="st26" cx="25.9" cy="118" r="1.1"/>
    <path class="st27" d="M95.1,124h-4.7c-0.6,0-1.2-0.5-1.2-1.2v0c0-0.6,0.5-1.2,1.2-1.2h4.7c0.6,0,1.2,0.5,1.2,1.2v0
			C96.2,123.5,95.7,124,95.1,124z"/>
    <path class="st27" d="M59.4,124h-4.7c-0.6,0-1.2-0.5-1.2-1.2v0c0-0.6,0.5-1.2,1.2-1.2h4.7c0.6,0,1.2,0.5,1.2,1.2v0
			C60.5,123.5,60,124,59.4,124z"/>
    <path class="st27" d="M86.8,121.7H62.8c-0.6,0-1.2,0.5-1.2,1.2v0c0,0.6,0.5,1.2,1.2,1.2h9.5v1.2H67c-0.6,0-1.2,0.5-1.2,1.2
			c0,0.6,0.5,1.2,1.2,1.2h15.8c0.6,0,1.2-0.5,1.2-1.2c0-0.6-0.5-1.2-1.2-1.2h-5.4V124h9.4c0.6,0,1.2-0.5,1.2-1.2v0
			C87.9,122.2,87.4,121.7,86.8,121.7z"/>
    <path class="st28" d="M121.5,72.1c-0.7,0-1.3,0.6-1.3,1.3c0,0.7,0.6,1.3,1.3,1.3c0.7,0,1.3-0.6,1.3-1.3
			C122.8,72.6,122.2,72.1,121.5,72.1z M121.5,73.9c-0.3,0-0.6-0.3-0.6-0.6c0-0.3,0.3-0.6,0.6-0.6c0.3,0,0.6,0.3,0.6,0.6
			C122.2,73.7,121.9,73.9,121.5,73.9z"/>
    <polygon class="st0" points="114.1,60.4 112.8,60.5 113.5,59.4 113,59.1 112.4,60.3 111.8,59.1 111.3,59.4 112,60.5 110.7,60.4
			110.7,61 112,60.9 111.3,62 111.8,62.3 112.4,61.1 113,62.3 113.5,62 112.8,60.9 114.1,61 		"/>
	</g>
</svg>
