<?xml version="1.0" encoding="utf-8"?>
<svg id="Layer_1" xmlns="http://www.w3.org/2000/svg" viewBox="0 0 149.3 157.7" xml:space="preserve">
<style type="text/css">
	.st0 {
    fill: #A7A9AC;
  }

  .st26 {
    fill: #A41737;
  }

  .st28 {
    fill: #E6B122;
  }
</style>
  <g>
	<g>
		<polygon class="st0" points="32.3,69.6 31,69.7 31.8,68.6 31.3,68.3 30.6,69.5 30,68.3 29.5,68.6 30.2,69.7 29,69.6 29,70.2
			30.3,70.1 29.5,71.2 30,71.5 30.7,70.3 31.3,71.5 31.8,71.2 31.1,70.1 32.3,70.2 		"/>
    <polygon class="st0" points="63.2,34.9 62,34.9 62.7,33.9 62.2,33.7 61.7,34.7 61.1,33.7 60.7,34 61.3,34.9 60.2,34.8 60.2,35.3
			61.4,35.3 60.7,36.2 61.2,36.5 61.7,35.5 62.3,36.5 62.7,36.2 62.1,35.3 63.2,35.4 		"/>
    <polygon class="st0" points="29.2,34.3 28.3,34.4 28.8,33.6 28.5,33.4 28,34.2 27.6,33.4 27.3,33.7 27.8,34.4 26.9,34.3
			26.9,34.7 27.8,34.7 27.3,35.4 27.6,35.6 28.1,34.8 28.5,35.6 28.8,35.4 28.3,34.7 29.2,34.7 		"/>
    <path class="st28" d="M97.9,45.1c-1,0-1.8,0.8-1.8,1.8c0,1,0.8,1.8,1.8,1.8c1,0,1.8-0.8,1.8-1.8C99.7,45.9,98.9,45.1,97.9,45.1z
			 M97.9,47.7c-0.5,0-0.9-0.4-0.9-0.9c0-0.5,0.4-0.9,0.9-0.9s0.9,0.4,0.9,0.9C98.8,47.3,98.4,47.7,97.9,47.7z"/>
    <path class="st28" d="M118.9,34.5c-0.7,0-1.3,0.6-1.3,1.3c0,0.7,0.6,1.3,1.3,1.3c0.7,0,1.3-0.6,1.3-1.3
			C120.1,35,119.5,34.5,118.9,34.5z M118.9,36.3c-0.3,0-0.6-0.3-0.6-0.6s0.3-0.6,0.6-0.6c0.3,0,0.6,0.3,0.6,0.6
			S119.2,36.3,118.9,36.3z"/>
    <path class="st28" d="M86.2,30.2c-0.7,0-1.3,0.6-1.3,1.3c0,0.7,0.6,1.3,1.3,1.3c0.7,0,1.3-0.6,1.3-1.3
			C87.4,30.7,86.9,30.2,86.2,30.2z M86.2,32c-0.3,0-0.6-0.3-0.6-0.6s0.3-0.6,0.6-0.6c0.3,0,0.6,0.3,0.6,0.6S86.5,32,86.2,32z"/>
    <path class="st28" d="M41.7,50.2c-0.7,0-1.3,0.6-1.3,1.3c0,0.7,0.6,1.3,1.3,1.3c0.7,0,1.3-0.6,1.3-1.3
			C43,50.8,42.4,50.2,41.7,50.2z M41.7,52.1c-0.3,0-0.6-0.3-0.6-0.6s0.3-0.6,0.6-0.6s0.6,0.3,0.6,0.6S42.1,52.1,41.7,52.1z"/>
    <path class="st28" d="M121.3,72.1c-0.7,0-1.3,0.6-1.3,1.3c0,0.7,0.6,1.3,1.3,1.3c0.7,0,1.3-0.6,1.3-1.3
			C122.5,72.6,122,72.1,121.3,72.1z M121.3,73.9c-0.3,0-0.6-0.3-0.6-0.6c0-0.3,0.3-0.6,0.6-0.6c0.3,0,0.6,0.3,0.6,0.6
			C121.9,73.7,121.6,73.9,121.3,73.9z"/>
    <polygon class="st0" points="113.8,60.4 112.5,60.5 113.2,59.4 112.7,59.1 112.1,60.3 111.5,59.1 111,59.4 111.7,60.5 110.5,60.4
			110.5,61 111.8,60.9 111,62 111.5,62.3 112.1,61.1 112.8,62.3 113.3,62 112.6,60.9 113.8,61 		"/>
	</g>
    <g>
		<path class="st26" d="M103.2,84c3.8-5.1,4.9-10.7,2.9-16.7c-3.9-11.4-17.8-15.4-27.4-7.9c-0.5,0.4-0.8,0.4-1.3,0
			c-3.2-2.5-6.8-3.7-11.3-3.7c-0.5,0-1.6,0.1-2.6,0.3C49.8,58.4,45.1,74,52.9,84c0.4,0.4,0.4,0.7,0,1.1c-1.2,1.2-1.9,2.7-1.6,4.4
			c0.5,2.8,2.2,4.3,5.1,4.6c0.4,0,0.6,0.1,0.6,0.6c0.1,3,2.1,5,5.1,5.1c0.4,0,0.6,0,0.6,0.6c0.1,3.1,2.1,5.1,5.2,5.2
			c0.6,0,0.7,0.2,0.7,0.8c0.2,2.2,1.2,3.8,3.3,4.6c2.1,0.8,4,0.2,5.7-1.2c0.4-0.4,0.6-0.4,1,0c1.6,1.6,3.5,2.1,5.7,1.3
			c2.1-0.8,3.2-2.5,3.3-4.8c0-0.4,0.1-0.6,0.6-0.6c3.1-0.2,4.9-2,5.1-5.1c0-0.5,0.1-0.6,0.6-0.7c3.3-0.4,4.5-1.6,5.1-4.8
			c0.1-0.6,0.2-1,1-1c0.5,0,1.1-0.1,1.6-0.4c3.4-1.3,4.3-5.8,1.6-8.6C102.9,84.7,102.8,84.5,103.2,84z M62.9,58.4
			c5.3-1.3,9.9,0,13.9,3.6c2.4,2.2,4.7,4.5,7,6.9c1.4,1.4,1.3,3.6,0,5c-1.3,1.4-3.5,1.4-5,0.1c-1-0.9-2-1.9-2.9-2.9
			c-0.5-0.5-1-0.8-1.8-0.7c-0.7,0-1.4,0-2.1,0c-2.2,0.6-3.8-0.5-5.1-2.1c-0.5-0.7-1.2-1.2-1.8-1.8c-0.6-0.6-1.2-0.6-1.7-0.1
			c-0.5,0.5-0.4,1.1,0.1,1.7c0.9,1,1.9,1.9,2.8,2.8c0.3,0.3,0.4,0.5,0,0.8c-3.6,3.6-7.2,7.2-10.8,10.8c-0.4,0.4-0.6,0.5-1,0
			C48.1,73.9,51.8,61.2,62.9,58.4z M68.9,103.1c-1.1,0.5-2.5,0-3.2-1.1c-0.8-1.1-0.8-2.5,0.2-3.5c1.3-1.4,2.7-2.8,4.1-4.2
			c0.2-0.2,0.4-0.4,0.6-0.7c0.5-0.6,0.5-1.3,0-1.7c-0.5-0.4-1.1-0.4-1.7,0.2c-1.5,1.4-2.9,2.9-4.4,4.4c-0.8,0.8-1.7,1.3-2.9,1
			c-2.3-0.5-3.1-3.1-1.5-4.9c1.3-1.4,2.7-2.8,4.1-4.2c0.2-0.2,0.3-0.3,0.5-0.5c0.5-0.6,0.6-1.3,0.1-1.7c-0.5-0.5-1.2-0.4-1.8,0.2
			c-1.4,1.3-2.7,2.7-4,4c-0.3,0.3-0.6,0.6-1,0.8c-1.3,0.8-2.7,0.7-3.7-0.4c-0.9-1-1-2.6-0.1-3.8c0.2-0.3,0.5-0.6,0.8-0.9
			c4.3-4.3,8.6-8.6,12.9-12.9c0.5-0.5,1.1-0.8,1.8-0.7c0.6,0.1,1.2,0,1.8,0c2-0.5,3.4,0.4,4.6,1.9c0.9,1.1,2,2,3.5,2.5
			c2.5,0.8,5.3-0.3,6.7-2.6c1.4-2.3,1.1-5.2-0.8-7.2c-1.7-1.7-3.4-3.3-5.2-4.9c-0.6-0.5-0.5-0.7,0.1-1.1c4.6-3.4,9.7-4.2,15-2.1
			c5.2,2.1,8.3,6.1,9.2,11.6c0.7,4.3-0.4,8.1-3,11.5c-0.4,0.6-0.7,0.5-1.1,0c-0.7-0.7-1.4-1.4-2.1-2.1c-1.7-1.6-3.6-2.1-5.7-1.2
			c-2.1,0.9-3.2,2.5-3.2,4.8c0,0.5-0.2,0.6-0.6,0.6c-3,0.1-5,2.1-5.1,5.1c0,0.5-0.2,0.6-0.7,0.6c-3,0.2-4.9,2.1-5.1,5
			c0,0.4-0.1,0.6-0.6,0.7c-0.5,0.1-1,0.2-1.5,0.4c-1.8,0.5-2.9,1.7-3.5,3.5C71.7,101.3,70.4,102.4,68.9,103.1z M76.2,108
			c-0.7,0.8-2.5,1.2-3.5,0.9c-1.1-0.4-1.9-1.6-1.9-3c-0.1-0.9,0.6-1.7,1.3-2.3c0.2-0.2,0.3-0.2,0.4,0.1c1,1.4,2.3,2.5,3.5,3.7
			C76.3,107.5,76.6,107.7,76.2,108z M83.7,108.8c-1,0.5-2.1,0.6-3-0.2c-2-1.8-4-3.7-5.8-5.8c-1-1.1-0.8-2.8,0.3-3.8
			c1.1-1,2.8-1.2,3.9-0.2c1.9,1.8,3.7,3.7,5.6,5.5c0.5,0.5,0.7,1.2,0.7,1.9C85.3,107.5,84.7,108.3,83.7,108.8z M90.9,101.8
			c-0.5,1.1-1.4,1.6-2.6,1.7c-0.8,0-1.5-0.2-2-0.8c-1.8-1.8-3.6-3.5-5.3-5.3c-0.8-0.9-1.1-1.9-0.6-3.1c0.5-1.2,1.4-1.7,2.6-1.8
			c0.8-0.1,1.4,0.2,1.9,0.7c1.9,1.8,3.8,3.6,5.6,5.5C91.2,99.6,91.4,100.7,90.9,101.8z M95.1,97.4c-1.1,0.5-2.2,0.3-3.1-0.5
			c-1.8-1.7-3.6-3.5-5.3-5.3c-1.1-1.2-1.1-2.8,0-4c1.1-1.2,2.8-1.3,4-0.1c1.8,1.7,3.6,3.5,5.3,5.3c0.5,0.5,0.8,1.2,0.8,2
			C96.8,95.9,96.3,96.9,95.1,97.4z M102.4,90.3c-0.5,1.1-1.4,1.6-2.6,1.6c-0.7,0-1.3-0.2-1.8-0.7c-1.9-1.8-3.8-3.6-5.5-5.5
			c-1.1-1.2-1.1-2.8,0-3.9c1.1-1.1,2.9-1.3,4.1-0.2c1.9,1.7,3.7,3.6,5.4,5.5C102.8,88.1,102.9,89.1,102.4,90.3z"/>
	</g>
</g>
</svg>
