<?xml version="1.0" encoding="utf-8"?>
<svg xmlns="http://www.w3.org/2000/svg" viewBox="0 0 149.3 157.7" xml:space="preserve">
<style type="text/css">
	.st0 {
    fill: #A7A9AC;
  }

  .st26 {
    fill: #A41737;
  }

  .st28 {
    fill: #E6B122;
  }
</style>
  <g>
	<g>
		<polygon class="st0" points="32.2,69.6 31,69.7 31.7,68.6 31.2,68.3 30.6,69.5 29.9,68.3 29.4,68.6 30.2,69.7 28.9,69.6
			28.9,70.2 30.2,70.1 29.5,71.2 30,71.5 30.6,70.3 31.2,71.5 31.7,71.2 31,70.1 32.2,70.2 		"/>
    <polygon class="st0" points="63.1,34.9 62,34.9 62.6,33.9 62.2,33.7 61.6,34.7 61.1,33.7 60.6,34 61.3,34.9 60.1,34.8 60.1,35.3
			61.3,35.3 60.6,36.2 61.1,36.5 61.6,35.5 62.2,36.5 62.6,36.2 62,35.3 63.1,35.4 		"/>
    <polygon class="st0" points="29.1,34.3 28.2,34.4 28.7,33.6 28.4,33.4 28,34.2 27.5,33.4 27.2,33.7 27.7,34.4 26.8,34.3
			26.8,34.7 27.7,34.7 27.2,35.4 27.6,35.6 28,34.8 28.4,35.6 28.7,35.4 28.2,34.7 29.1,34.7 		"/>
    <path class="st28" d="M97.9,45.1c-1,0-1.8,0.8-1.8,1.8c0,1,0.8,1.8,1.8,1.8c1,0,1.8-0.8,1.8-1.8C99.7,45.9,98.9,45.1,97.9,45.1z
			 M97.9,47.7c-0.5,0-0.9-0.4-0.9-0.9c0-0.5,0.4-0.9,0.9-0.9c0.5,0,0.9,0.4,0.9,0.9C98.7,47.3,98.4,47.7,97.9,47.7z"/>
    <path class="st28" d="M118.8,34.5c-0.7,0-1.3,0.6-1.3,1.3c0,0.7,0.6,1.3,1.3,1.3c0.7,0,1.3-0.6,1.3-1.3
			C120,35,119.5,34.5,118.8,34.5z M118.8,36.3c-0.3,0-0.6-0.3-0.6-0.6s0.3-0.6,0.6-0.6c0.3,0,0.6,0.3,0.6,0.6S119.1,36.3,118.8,36.3
			z"/>
    <path class="st28" d="M86.1,30.2c-0.7,0-1.3,0.6-1.3,1.3c0,0.7,0.6,1.3,1.3,1.3c0.7,0,1.3-0.6,1.3-1.3
			C87.4,30.7,86.8,30.2,86.1,30.2z M86.1,32c-0.3,0-0.6-0.3-0.6-0.6s0.3-0.6,0.6-0.6c0.3,0,0.6,0.3,0.6,0.6S86.5,32,86.1,32z"/>
    <path class="st28" d="M41.7,50.2c-0.7,0-1.3,0.6-1.3,1.3c0,0.7,0.6,1.3,1.3,1.3c0.7,0,1.3-0.6,1.3-1.3
			C42.9,50.8,42.3,50.2,41.7,50.2z M41.7,52.1c-0.3,0-0.6-0.3-0.6-0.6s0.3-0.6,0.6-0.6s0.6,0.3,0.6,0.6S42,52.1,41.7,52.1z"/>
    <path class="st28" d="M121.2,72.1c-0.7,0-1.3,0.6-1.3,1.3c0,0.7,0.6,1.3,1.3,1.3c0.7,0,1.3-0.6,1.3-1.3
			C122.4,72.6,121.9,72.1,121.2,72.1z M121.2,73.9c-0.3,0-0.6-0.3-0.6-0.6c0-0.3,0.3-0.6,0.6-0.6c0.3,0,0.6,0.3,0.6,0.6
			C121.8,73.7,121.5,73.9,121.2,73.9z"/>
    <polygon class="st0" points="113.7,60.4 112.5,60.5 113.2,59.4 112.7,59.1 112.1,60.3 111.4,59.1 110.9,59.4 111.7,60.5
			110.4,60.4 110.4,61 111.7,60.9 111,62 111.5,62.3 112.1,61.1 112.7,62.3 113.2,62 112.5,60.9 113.7,61 		"/>
	</g>
    <g>
		<g>
			<path class="st26" d="M74.5,73.3c-0.5,0-1,0-1.4-0.1c-0.5,0-0.8-0.3-0.9-0.9c0-0.4-0.1-0.7-0.2-1.1c-0.1-0.3-0.1-0.6-0.1-0.9
				c-0.7-0.2-1.3-0.4-1.9-0.7c-0.3,0.2-0.5,0.5-0.8,0.7c-0.3,0.2-0.5,0.5-0.8,0.7c-0.3,0.3-0.7,0.3-1.1,0.1c-0.7-0.4-1.4-1-2-1.6
				c-0.3-0.3-0.4-0.7-0.2-1.1c0.2-0.3,0.3-0.6,0.5-0.9c0.1-0.3,0.3-0.6,0.4-0.9c-0.4-0.6-0.8-1.1-1.1-1.6c-0.3,0-0.6,0.1-0.9,0.1
				c-0.3,0-0.7,0.1-1,0.1c-0.5,0.1-0.8-0.1-1-0.6c-0.3-0.8-0.5-1.5-0.7-2.4c-0.1-0.5,0.1-0.9,0.5-1.1c0.3-0.2,0.6-0.3,1-0.5
				c0.3-0.1,0.5-0.3,0.8-0.4c0,0,0,0,0,0c0-0.6,0-1.3,0.1-2c0,0,0,0,0,0c0,0,0,0,0,0c-0.3-0.2-0.6-0.3-0.8-0.5
				c-0.3-0.2-0.6-0.3-0.9-0.5c-0.4-0.2-0.6-0.6-0.5-1.1c0.2-0.7,0.4-1.4,0.8-2.2c0.2-0.5,0.6-0.7,1.1-0.6c0.3,0.1,0.7,0.1,1,0.2
				c0.3,0,0.6,0.1,0.9,0.1c0.4-0.5,0.8-1,1.2-1.6c-0.1-0.3-0.3-0.6-0.4-0.8c-0.1-0.3-0.3-0.7-0.4-1c-0.2-0.5-0.1-0.8,0.3-1.1
				c0.7-0.5,1.4-1,2.1-1.4c0.4-0.2,0.8-0.2,1.1,0.2c0.2,0.2,0.5,0.5,0.7,0.7c0.2,0.2,0.5,0.5,0.7,0.7c0,0,0,0,0,0
				c0.6-0.2,1.3-0.4,1.9-0.6c0,0,0,0,0,0c0,0,0,0,0,0c0.1-0.3,0.1-0.6,0.2-0.8c0.1-0.3,0.1-0.7,0.2-1c0.1-0.6,0.4-0.9,1-0.9
				c0.8,0,1.6,0,2.3,0.1c0.5,0.1,0.8,0.3,0.9,0.8c0,0.3,0.1,0.6,0.1,0.9c0.1,0.3,0.1,0.6,0.1,0.9c0,0.1,0,0.1,0,0.1h0c0,0,0,0,0.1,0
				c0.6,0.2,1.2,0.4,1.8,0.6c0.2-0.2,0.5-0.4,0.7-0.6c0.3-0.2,0.5-0.5,0.8-0.7c0.2-0.2,0.6-0.4,1.1-0.1c0.6,0.4,1.3,0.9,1.9,1.4
				c0.4,0.3,0.5,0.7,0.2,1.2c-0.1,0.3-0.3,0.6-0.4,0.9c-0.1,0.3-0.3,0.6-0.4,0.9c0,0,0,0,0,0c0.4,0.6,0.8,1.1,1.1,1.6c0,0,0,0,0,0
				l0,0c0.2,0,0.4,0,0.6-0.1c0.5,0,1-0.1,1.4-0.2c0.5-0.1,0.8,0.1,0.9,0.6c0.3,0.8,0.6,1.6,0.7,2.4c0.1,0.6-0.2,0.9-0.5,1.1
				c-0.3,0.1-0.6,0.3-0.9,0.4c-0.3,0.2-0.6,0.3-0.9,0.5c0,0,0,0,0,0c0,0,0,0,0,0c0,0.7,0,1.3,0,2c0.3,0.2,0.5,0.3,0.8,0.5
				c0.3,0.2,0.6,0.4,0.9,0.5l0,0c0.5,0.3,0.5,0.7,0.5,1c-0.2,0.8-0.5,1.6-0.8,2.4c-0.2,0.4-0.5,0.6-1,0.5c-0.3,0-0.6-0.1-0.9-0.1
				c-0.4,0-0.7-0.1-1.1-0.2c-0.3,0.4-0.7,1-1.2,1.6c0,0,0,0,0,0c0,0,0,0,0,0c0.2,0.3,0.3,0.6,0.4,1c0.1,0.3,0.2,0.6,0.4,0.8
				c0.2,0.5,0.1,0.8-0.2,1.1c-0.6,0.5-1.3,1-2.1,1.4c-0.3,0.2-0.7,0.3-1.1-0.2c-0.3-0.3-0.5-0.5-0.8-0.8c-0.2-0.2-0.4-0.4-0.7-0.6
				c-0.6,0.2-1.1,0.4-1.9,0.6c-0.1,0.3-0.1,0.7-0.2,1c-0.1,0.3-0.1,0.7-0.2,1c-0.1,0.6-0.5,0.7-0.8,0.7
				C75.1,73.3,74.8,73.3,74.5,73.3z M73.1,72.2c0.6,0.1,1.3,0.1,2.2,0c0.1-0.3,0.1-0.6,0.2-0.9c0.1-0.3,0.1-0.7,0.2-1
				c0.1-0.4,0.3-0.7,0.7-0.8c0.8-0.2,1.4-0.4,1.9-0.6c0.4-0.1,0.7,0,1,0.2c0.2,0.2,0.5,0.4,0.7,0.7c0.2,0.2,0.5,0.5,0.7,0.7
				c0.6-0.4,1.2-0.8,1.8-1.2c-0.1-0.3-0.2-0.5-0.4-0.8c-0.1-0.3-0.3-0.6-0.4-0.9c-0.2-0.4-0.2-0.8,0.1-1.1c0.4-0.5,0.9-1.1,1.2-1.5
				c0.3-0.3,0.6-0.5,1-0.4c0.4,0.1,0.7,0.1,1.1,0.2c0.3,0,0.6,0.1,0.8,0.1c0.3-0.7,0.5-1.4,0.7-2.1c-0.3-0.2-0.6-0.3-0.9-0.5
				c-0.3-0.2-0.6-0.3-0.8-0.5c-0.3-0.2-0.5-0.5-0.5-0.9c0-0.6,0-1.3,0-1.9c0-0.5,0.2-0.8,0.6-1c0.3-0.1,0.6-0.3,0.8-0.4
				c0.3-0.1,0.5-0.3,0.8-0.4c-0.2-0.7-0.4-1.4-0.6-2.1c-0.4,0.1-0.9,0.1-1.3,0.1c-0.2,0-0.4,0-0.5,0.1c-0.3,0.1-0.7,0.1-1-0.5
				c-0.3-0.5-0.7-1-1.1-1.6c-0.3-0.3-0.3-0.7-0.1-1.1c0.1-0.3,0.3-0.6,0.4-0.9c0.1-0.3,0.3-0.6,0.4-0.9c-0.6-0.5-1.1-0.9-1.7-1.3
				c-0.2,0.2-0.5,0.4-0.7,0.7c-0.2,0.2-0.5,0.4-0.7,0.7c-0.3,0.3-0.7,0.4-1,0.2c-0.6-0.2-1.1-0.4-1.7-0.6c-0.7-0.2-0.8-0.7-0.9-1
				c0-0.3-0.1-0.6-0.1-0.9c-0.1-0.3-0.1-0.6-0.1-0.9c-0.7-0.1-1.4-0.1-2.1,0c0,0,0,0,0,0c0,0,0,0,0,0c-0.1,0.4-0.1,0.7-0.2,1
				c-0.1,0.3-0.1,0.5-0.2,0.8c-0.1,0.4-0.3,0.7-0.8,0.8c-0.6,0.2-1.2,0.3-1.9,0.6c-0.6,0.2-0.9-0.2-1.1-0.3
				c-0.2-0.2-0.5-0.5-0.7-0.7c-0.2-0.2-0.4-0.4-0.7-0.7c-0.6,0.4-1.2,0.8-1.8,1.2c0.1,0.3,0.3,0.6,0.4,0.9c0.1,0.3,0.2,0.6,0.4,0.8
				c0.2,0.4,0.1,0.7-0.1,1.1c-0.4,0.6-0.9,1.1-1.2,1.6c-0.2,0.3-0.6,0.4-0.9,0.4c-0.3,0-0.6-0.1-0.9-0.1c-0.3,0-0.7-0.1-1.1-0.2
				c-0.3,0.8-0.5,1.4-0.7,2.1c0.3,0.2,0.6,0.3,0.8,0.5c0.3,0.2,0.5,0.3,0.8,0.5c0.4,0.2,0.6,0.5,0.6,1c0,0.7-0.1,1.3,0,1.9
				c0,0.6-0.4,0.9-0.6,0.9c-0.3,0.1-0.5,0.3-0.8,0.4c-0.3,0.2-0.6,0.3-0.9,0.5c0.2,0.7,0.4,1.4,0.6,2.1c0.3,0,0.7-0.1,1-0.1
				c0.3,0,0.6-0.1,0.9-0.1c0.4-0.1,0.7,0.1,1,0.4c0.3,0.5,0.7,1.1,1.2,1.7c0.2,0.3,0.3,0.7,0.1,1c-0.1,0.3-0.3,0.6-0.4,0.9
				c-0.1,0.3-0.3,0.6-0.4,0.9c0.6,0.5,1.1,0.9,1.7,1.3c0.2-0.2,0.5-0.4,0.7-0.6c0.2-0.2,0.5-0.4,0.7-0.7c0.1-0.1,0.5-0.4,1-0.2
				c0.6,0.2,1.2,0.4,1.9,0.7c0.6,0.2,0.6,0.7,0.7,0.8c0,0.3,0.1,0.6,0.1,0.8C73,71.5,73.1,71.8,73.1,72.2z M76.7,70.6L76.7,70.6
				L76.7,70.6z M82.7,67.2L82.7,67.2L82.7,67.2z M62.8,64.5L62.8,64.5L62.8,64.5z M86.8,62.8C86.8,62.8,86.8,62.8,86.8,62.8
				S86.8,62.8,86.8,62.8z M85.5,60.8L85.5,60.8L85.5,60.8z M62.2,56.5C62.2,56.5,62.2,56.5,62.2,56.5C62.2,56.5,62.2,56.5,62.2,56.5
				z M66.3,52.1L66.3,52.1L66.3,52.1z M79.1,49.6L79.1,49.6L79.1,49.6z M70.4,49.4L70.4,49.4L70.4,49.4z M70.3,49.4L70.3,49.4
				L70.3,49.4z M72.2,48.8C72.2,48.8,72.2,48.8,72.2,48.8C72.2,48.8,72.2,48.8,72.2,48.8z M75.8,47L75.8,47L75.8,47z M75.8,47
				L75.8,47L75.8,47z M74.5,66.1C74.5,66.1,74.5,66.1,74.5,66.1c-1.7,0-3.3-0.7-4.5-1.9c-1.2-1.2-1.9-2.9-1.9-4.6
				c0-3.5,2.9-6.3,6.4-6.3c0,0,0,0,0,0c1.7,0,3.3,0.7,4.5,1.9c1.2,1.2,1.9,2.8,1.9,4.5C80.9,63.2,78,66.1,74.5,66.1z M74.5,54.3
				c-2.9,0-5.3,2.4-5.4,5.3c0,1.5,0.5,2.8,1.6,3.8c1,1,2.4,1.6,3.8,1.6c0,0,0,0,0,0c2.9,0,5.3-2.4,5.4-5.3c0-1.4-0.5-2.8-1.5-3.8
				C77.3,54.9,75.9,54.3,74.5,54.3C74.5,54.3,74.5,54.3,74.5,54.3z"/>
		</g>
      <g>
			<g>
				<path class="st26"
              d="M89.5,53.4h-0.7c-0.2,0-0.3-0.1-0.3-0.3s0.1-0.3,0.3-0.3h0.7c0.2,0,0.3,0.1,0.3,0.3S89.7,53.4,89.5,53.4z"
        />
			</g>
        <g>
				<path class="st26" d="M94,53.4h-1.1c-0.2,0-0.3-0.1-0.3-0.3s0.1-0.3,0.3-0.3H94c0.2,0,0.3,0.1,0.3,0.3S94.2,53.4,94,53.4z
					 M91.7,53.4h-1.1c-0.2,0-0.3-0.1-0.3-0.3s0.1-0.3,0.3-0.3h1.1c0.2,0,0.3,0.1,0.3,0.3S91.9,53.4,91.7,53.4z"/>
			</g>
        <g>
				<path class="st26" d="M95.8,54.1c-0.2,0-0.3-0.1-0.3-0.3v-0.3h-0.3c-0.2,0-0.3-0.1-0.3-0.3s0.1-0.3,0.3-0.3h0.7
					c0.2,0,0.3,0.1,0.3,0.3v0.7C96.1,53.9,95.9,54.1,95.8,54.1z"/>
			</g>
        <g>
				<path class="st26" d="M95.8,69.2c-0.2,0-0.3-0.1-0.3-0.3v-1.3c0-0.2,0.1-0.3,0.3-0.3s0.3,0.1,0.3,0.3v1.3
					C96.1,69.1,95.9,69.2,95.8,69.2z M95.8,66.7c-0.2,0-0.3-0.1-0.3-0.3v-1.3c0-0.2,0.1-0.3,0.3-0.3s0.3,0.1,0.3,0.3v1.3
					C96.1,66.5,95.9,66.7,95.8,66.7z M95.8,64.2c-0.2,0-0.3-0.1-0.3-0.3v-1.3c0-0.2,0.1-0.3,0.3-0.3s0.3,0.1,0.3,0.3v1.3
					C96.1,64,95.9,64.2,95.8,64.2z M95.8,61.7c-0.2,0-0.3-0.1-0.3-0.3v-1.3c0-0.2,0.1-0.3,0.3-0.3s0.3,0.1,0.3,0.3v1.3
					C96.1,61.5,95.9,61.7,95.8,61.7z M95.8,59.1c-0.2,0-0.3-0.1-0.3-0.3v-1.3c0-0.2,0.1-0.3,0.3-0.3s0.3,0.1,0.3,0.3v1.3
					C96.1,59,95.9,59.1,95.8,59.1z M95.8,56.6c-0.2,0-0.3-0.1-0.3-0.3V55c0-0.2,0.1-0.3,0.3-0.3s0.3,0.1,0.3,0.3v1.3
					C96.1,56.5,95.9,56.6,95.8,56.6z"/>
			</g>
        <g>
				<path class="st26" d="M95.8,71.1c-0.2,0-0.3-0.1-0.3-0.3v-0.7c0-0.2,0.1-0.3,0.3-0.3s0.3,0.1,0.3,0.3v0.7
					C96.1,71,95.9,71.1,95.8,71.1z"/>
			</g>
		</g>
      <g>
			<g>
				<path class="st26"
              d="M60.4,53.4h-0.7c-0.2,0-0.3-0.1-0.3-0.3s0.1-0.3,0.3-0.3h0.7c0.2,0,0.3,0.1,0.3,0.3S60.6,53.4,60.4,53.4z"
        />
			</g>
        <g>
				<path class="st26" d="M58.7,53.4h-1.1c-0.2,0-0.3-0.1-0.3-0.3s0.1-0.3,0.3-0.3h1.1c0.2,0,0.3,0.1,0.3,0.3S58.8,53.4,58.7,53.4z
					 M56.4,53.4h-1.1c-0.2,0-0.3-0.1-0.3-0.3s0.1-0.3,0.3-0.3h1.1c0.2,0,0.3,0.1,0.3,0.3S56.6,53.4,56.4,53.4z"/>
			</g>
        <g>
				<path class="st26" d="M53.5,54.1c-0.2,0-0.3-0.1-0.3-0.3v-0.7c0-0.2,0.1-0.3,0.3-0.3h0.7c0.2,0,0.3,0.1,0.3,0.3
					s-0.1,0.3-0.3,0.3h-0.3v0.3C53.9,53.9,53.7,54.1,53.5,54.1z"/>
			</g>
        <g>
				<path class="st26" d="M53.5,69.2c-0.2,0-0.3-0.1-0.3-0.3v-1.3c0-0.2,0.1-0.3,0.3-0.3s0.3,0.1,0.3,0.3v1.3
					C53.9,69.1,53.7,69.2,53.5,69.2z M53.5,66.7c-0.2,0-0.3-0.1-0.3-0.3v-1.3c0-0.2,0.1-0.3,0.3-0.3s0.3,0.1,0.3,0.3v1.3
					C53.9,66.5,53.7,66.7,53.5,66.7z M53.5,64.2c-0.2,0-0.3-0.1-0.3-0.3v-1.3c0-0.2,0.1-0.3,0.3-0.3s0.3,0.1,0.3,0.3v1.3
					C53.9,64,53.7,64.2,53.5,64.2z M53.5,61.7c-0.2,0-0.3-0.1-0.3-0.3v-1.3c0-0.2,0.1-0.3,0.3-0.3s0.3,0.1,0.3,0.3v1.3
					C53.9,61.5,53.7,61.7,53.5,61.7z M53.5,59.1c-0.2,0-0.3-0.1-0.3-0.3v-1.3c0-0.2,0.1-0.3,0.3-0.3s0.3,0.1,0.3,0.3v1.3
					C53.9,59,53.7,59.1,53.5,59.1z M53.5,56.6c-0.2,0-0.3-0.1-0.3-0.3V55c0-0.2,0.1-0.3,0.3-0.3s0.3,0.1,0.3,0.3v1.3
					C53.9,56.5,53.7,56.6,53.5,56.6z"/>
			</g>
        <g>
				<path class="st26" d="M53.5,71.1c-0.2,0-0.3-0.1-0.3-0.3v-0.7c0-0.2,0.1-0.3,0.3-0.3s0.3,0.1,0.3,0.3v0.7
					C53.9,71,53.7,71.1,53.5,71.1z"/>
			</g>
		</g>
      <g>
			<path class="st26" d="M74.2,81.8c-0.2,0-0.3-0.1-0.3-0.3v-0.9c0-0.2,0.1-0.3,0.3-0.3s0.3,0.1,0.3,0.3v0.9
				C74.5,81.6,74.4,81.8,74.2,81.8z M74.2,79.5c-0.2,0-0.3-0.1-0.3-0.3v-1.3c0-0.2,0.1-0.3,0.3-0.3s0.3,0.1,0.3,0.3v1.3
				C74.5,79.4,74.4,79.5,74.2,79.5z M74.2,76.9c-0.2,0-0.3-0.1-0.3-0.3v-1.3c0-0.2,0.1-0.3,0.3-0.3s0.3,0.1,0.3,0.3v1.3
				C74.5,76.7,74.4,76.9,74.2,76.9z"/>
		</g>
      <path class="st26" d="M98.9,83.4c1.6-1,2.7-2.9,2.7-5c0-3.2-2.6-5.9-5.9-5.9s-5.9,2.6-5.9,5.9c0,2.1,1.1,3.9,2.7,4.9
			c-3.5,1.3-6,4.6-6,8.6h1.5c0-4.2,3.4-7.6,7.6-7.6s7.6,3.4,7.6,7.6h1.5C104.9,88,102.4,84.7,98.9,83.4z M91.5,78.4
			c0-2.4,1.9-4.3,4.3-4.3s4.3,1.9,4.3,4.3s-1.9,4.3-4.3,4.3S91.5,80.8,91.5,78.4z"/>
      <path class="st26" d="M56.7,83.4c1.6-1,2.7-2.9,2.7-5c0-3.2-2.6-5.9-5.9-5.9c-3.2,0-5.9,2.6-5.9,5.9c0,2.1,1.1,3.9,2.7,4.9
			c-3.5,1.3-6,4.6-6,8.6h1.5c0-4.2,3.4-7.6,7.6-7.6s7.6,3.4,7.6,7.6h1.5C62.7,88,60.2,84.7,56.7,83.4z M49.3,78.4
			c0-2.4,1.9-4.3,4.3-4.3c2.4,0,4.3,1.9,4.3,4.3s-1.9,4.3-4.3,4.3C51.2,82.7,49.3,80.8,49.3,78.4z"/>
      <path class="st26" d="M78.5,96.4c2.1-1.3,3.5-3.6,3.5-6.3c0-4.1-3.3-7.4-7.4-7.4s-7.4,3.3-7.4,7.4c0,2.6,1.4,4.9,3.4,6.2
			c-4.4,1.6-7.6,5.9-7.6,10.9h1.9c0-5.3,4.3-9.6,9.6-9.6s9.6,4.3,9.6,9.6H86C86,102.3,82.9,98,78.5,96.4z M69.1,90.1
			c0-3,2.4-5.4,5.4-5.4c3,0,5.4,2.4,5.4,5.4s-2.4,5.4-5.4,5.4C71.5,95.5,69.1,93.1,69.1,90.1z"/>
	</g>
</g>
</svg>
