<svg height="512" viewBox="0 0 512.802 512.802" width="512" xmlns="http://www.w3.org/2000/svg">
  <g>
    <path
      d="m483.582 284.393-92.061 18.853-15.509-6c33.463-32.415 52.439-76.88 52.439-123.842 0-45.865-17.799-89.041-50.118-121.572-32.29-32.502-75.289-50.583-121.089-50.917-.873-.02-1.713-.02-2.586 0-45.8.334-88.799 18.416-121.089 50.917-32.319 32.532-50.118 75.707-50.118 121.572 0 47.955 19.566 92.939 54.126 125.479l-15.841 4.439-92.438-18.933-29.298 144.161 111.297 14.646c-2.641 9.209-.359 19.553 6.856 26.796 5.126 5.146 11.944 7.98 19.197 7.98 5.968 0 11.639-1.922 16.317-5.469 1.263 4.049 3.482 7.859 6.672 11.061 5.127 5.146 11.944 7.979 19.197 7.979 4.208 0 8.268-.96 11.938-2.766 1.157 3.368 3.045 6.537 5.719 9.221 4.577 4.594 10.663 7.124 17.139 7.124s12.562-2.53 17.139-7.124l1.179-1.184c1.178 2.899 2.935 5.615 5.275 7.965 4.577 4.594 10.664 7.125 17.14 7.124 6.476 0 12.562-2.53 17.138-7.124l.282-.283c5.591 1.837 11.359 2.752 17.099 2.752 11.482 0 22.839-3.612 32.383-10.583l75.135-47.402 115.7-21.091zm-104.293-13.038c-10.516-9.521-21.957-17.696-34.107-24.453 5.458-20.543 8.612-42.944 9.173-65.999h58.907c-1.57 33.231-13.54 64.763-33.973 90.452zm-9.881 11.286c-2.858 2.965-5.837 5.834-8.944 8.59l-27.151-10.504c2.735-6.078 5.223-12.448 7.451-19.073 10.165 5.916 19.766 12.926 28.644 20.987zm43.86-116.738h-58.911c-.649-27.011-4.796-52.955-12.049-76.1 10.712-6.216 20.808-13.627 30.12-22.171 23.887 26.276 39.053 60.596 40.84 98.271zm-51.447-108.889c-7.656 6.968-15.889 13.101-24.583 18.36-2.967-7.58-6.293-14.785-9.969-21.532-6.458-11.85-13.743-21.85-21.645-29.867 21.039 7.036 40.128 18.403 56.197 33.039zm-98.37-40.458c18.872 3.267 36.656 18.795 50.646 44.465 3.656 6.709 6.943 13.917 9.846 21.536-18.756 8.989-39.238 14.179-60.491 15.168v-81.169zm0 96.178c22.92-.974 45.032-6.402 65.342-15.874 6.315 21.039 9.946 44.532 10.562 69.043h-75.904zm0 68.169h75.904c-.525 20.639-3.232 40.662-7.874 59.115-21.214-9.554-44.218-15.005-68.03-15.952zm0 58.171c22.392.971 43.994 6.283 63.84 15.532-2.418 7.455-5.164 14.587-8.253 21.296h-55.587zm-15-222.517v81.168c-21.254-.989-41.735-6.179-60.491-15.168 2.903-7.618 6.189-14.826 9.846-21.536 13.987-25.667 31.769-41.194 50.645-44.464zm-68.081 223.484c-4.629-18.391-7.303-38.384-7.822-59.138h75.903v43.162c-23.832.949-46.853 6.407-68.081 15.976zm68.081-.967v36.829h-30.821l-.823.777-20.739 5.812c-4.428-8.59-8.274-17.929-11.505-27.863 19.86-9.264 41.479-14.583 63.888-15.555zm-67.1 47.542-26.612 7.457c-4.31-3.616-8.392-7.434-12.249-11.428 8.87-8.053 18.461-15.058 28.614-20.972 2.963 8.782 6.388 17.126 10.247 24.943zm-8.803-120.713c.616-24.51 4.247-48.004 10.562-69.043 20.31 9.471 42.421 14.9 65.342 15.874v53.169zm33.732-141.928c-7.903 8.017-15.187 18.017-21.646 29.867-3.677 6.747-7.002 13.951-9.969 21.532-8.695-5.259-16.927-11.392-24.583-18.36 16.068-14.636 35.158-26.003 56.198-33.039zm-66.805 43.657c9.312 8.544 19.408 15.954 30.12 22.171-7.253 23.146-11.4 49.089-12.049 76.1h-58.911c1.786-37.675 16.952-71.995 40.84-98.271zm-6.891 203.749c-20.448-25.66-32.382-57.126-33.944-90.478h58.906c.555 23.183 3.676 45.544 9.124 66.027-12.143 6.758-23.576 14.932-34.086 24.451zm-114.682 144.395 23.103-113.679 53.655 10.989-21.438 109.969zm128.019 43.629c-2.291 2.299-5.335 3.566-8.57 3.566s-6.279-1.267-8.57-3.566c-4.747-4.766-4.747-12.521 0-17.287l18.081-18.149c2.291-2.3 5.334-3.566 8.57-3.566s6.279 1.266 8.57 3.566c4.748 4.766 4.748 12.521 0 17.286zm42.186 13.572c-2.291 2.3-5.334 3.566-8.57 3.566-3.235 0-6.279-1.266-8.57-3.565-4.747-4.766-4.747-12.521 0-17.287l18.081-18.15c2.291-2.3 5.334-3.566 8.57-3.566s6.279 1.266 8.57 3.565c4.342 4.36 4.7 11.214 1.098 16zm54.935-7.848-22.197 22.282c-1.741 1.748-4.054 2.71-6.512 2.71s-4.771-.963-6.512-2.71c-3.256-3.268-3.568-8.376-.957-12.01l23.154-23.427c1.741-1.748 4.054-2.71 6.513-2.71 2.458 0 4.771.963 6.511 2.71 3.613 3.627 3.613 9.528 0 13.155zm30.5 17.053-11.966 12.011c-1.741 1.748-4.053 2.71-6.511 2.71-2.459 0-4.771-.962-6.513-2.71-3.612-3.626-3.612-9.528 0-13.154l11.966-12.011c1.74-1.747 4.053-2.709 6.511-2.71 2.459 0 4.771.962 6.513 2.71 3.612 3.626 3.612 9.527 0 13.154zm40.197 1.938-.453.31c-8.266 6.103-18.422 8.704-28.383 7.523 8.658-9.513 8.431-24.31-.734-33.511-4.577-4.594-10.664-7.124-17.14-7.124-2.444 0-4.832.362-7.104 1.057-1.05-4.026-3.119-7.837-6.256-10.986-4.575-4.594-10.662-7.124-17.138-7.124 0 0 0 0-.001 0-4.688 0-9.169 1.333-13.024 3.808-1.26-4.07-3.486-7.902-6.69-11.119-5.126-5.146-11.944-7.979-19.197-7.979-5.967 0-11.638 1.922-16.316 5.468-1.263-4.049-3.483-7.859-6.673-11.061-5.126-5.146-11.944-7.979-19.197-7.979s-14.071 2.833-19.197 7.979l-15.823 15.883-32.29-4.249 21.234-108.919 12.93 2.648 71.082-19.919-51.689 48.835 5.436 5.456c22.781 22.868 59.153 23.579 82.805 1.618l10.812-10.041c10.614 12.344 35.948 39.999 62.142 55.337 30.232 17.703 60.56 34.151 76.509 42.676zm81.792-49.818c-9.518-5.021-47.384-25.142-85.079-47.215-31.264-18.307-62.862-57.556-63.179-57.95l-5.044-6.304-22.519 20.909c-15.771 14.646-39.101 15.817-56.059 3.793l59.942-56.633h94.452l72.17 27.921 21.204-4.342 22.005 112.913zm30.586-122.83 45.758-9.37 23.179 114.059-46.87 8.544z"
      fill="currentColor"/>
  </g>
</svg>
