<?xml version="1.0" encoding="utf-8"?>
<svg xmlns="http://www.w3.org/2000/svg" viewBox="0 0 149.3 157.7" xml:space="preserve">
<style type="text/css">
	.st0{fill:#A7A9AC;}
	.st26{fill:#A41737;}
	.st28{fill:#E6B122;}
</style>
<g>
	<g>
		<polygon class="st0" points="32.2,69.6 31,69.7 31.7,68.6 31.2,68.3 30.6,69.5 29.9,68.3 29.4,68.6 30.2,69.7 28.9,69.6
			28.9,70.2 30.2,70.1 29.5,71.2 30,71.5 30.6,70.3 31.2,71.5 31.7,71.2 31,70.1 32.2,70.2 		"/>
		<polygon class="st0" points="63.1,34.9 62,34.9 62.6,33.9 62.2,33.7 61.6,34.7 61.1,33.7 60.6,34 61.3,34.9 60.1,34.8 60.1,35.3
			61.3,35.3 60.6,36.2 61.1,36.5 61.6,35.5 62.2,36.5 62.6,36.2 62,35.3 63.1,35.4 		"/>
		<polygon class="st0" points="29.1,34.3 28.2,34.4 28.7,33.6 28.4,33.4 28,34.2 27.5,33.4 27.2,33.7 27.7,34.4 26.8,34.3
			26.8,34.7 27.7,34.7 27.2,35.4 27.6,35.6 28,34.8 28.4,35.6 28.7,35.4 28.2,34.7 29.1,34.7 		"/>
		<path class="st28" d="M97.9,45.1c-1,0-1.8,0.8-1.8,1.8c0,1,0.8,1.8,1.8,1.8c1,0,1.8-0.8,1.8-1.8C99.7,45.9,98.9,45.1,97.9,45.1z
			 M97.9,47.7c-0.5,0-0.9-0.4-0.9-0.9c0-0.5,0.4-0.9,0.9-0.9c0.5,0,0.9,0.4,0.9,0.9C98.7,47.3,98.4,47.7,97.9,47.7z"/>
		<path class="st28" d="M118.8,34.5c-0.7,0-1.3,0.6-1.3,1.3c0,0.7,0.6,1.3,1.3,1.3c0.7,0,1.3-0.6,1.3-1.3
			C120,35,119.5,34.5,118.8,34.5z M118.8,36.3c-0.3,0-0.6-0.3-0.6-0.6s0.3-0.6,0.6-0.6c0.3,0,0.6,0.3,0.6,0.6S119.1,36.3,118.8,36.3
			z"/>
		<path class="st28" d="M86.1,30.2c-0.7,0-1.3,0.6-1.3,1.3c0,0.7,0.6,1.3,1.3,1.3c0.7,0,1.3-0.6,1.3-1.3
			C87.4,30.7,86.8,30.2,86.1,30.2z M86.1,32c-0.3,0-0.6-0.3-0.6-0.6s0.3-0.6,0.6-0.6c0.3,0,0.6,0.3,0.6,0.6S86.5,32,86.1,32z"/>
		<path class="st28" d="M41.7,50.2c-0.7,0-1.3,0.6-1.3,1.3c0,0.7,0.6,1.3,1.3,1.3c0.7,0,1.3-0.6,1.3-1.3
			C42.9,50.8,42.3,50.2,41.7,50.2z M41.7,52.1c-0.3,0-0.6-0.3-0.6-0.6s0.3-0.6,0.6-0.6s0.6,0.3,0.6,0.6S42,52.1,41.7,52.1z"/>
		<path class="st28" d="M121.2,72.1c-0.7,0-1.3,0.6-1.3,1.3c0,0.7,0.6,1.3,1.3,1.3c0.7,0,1.3-0.6,1.3-1.3
			C122.4,72.6,121.9,72.1,121.2,72.1z M121.2,73.9c-0.3,0-0.6-0.3-0.6-0.6c0-0.3,0.3-0.6,0.6-0.6c0.3,0,0.6,0.3,0.6,0.6
			C121.8,73.7,121.5,73.9,121.2,73.9z"/>
		<polygon class="st0" points="113.7,60.4 112.5,60.5 113.2,59.4 112.7,59.1 112.1,60.3 111.4,59.1 110.9,59.4 111.7,60.5
			110.4,60.4 110.4,61 111.7,60.9 111,62 111.5,62.3 112.1,61.1 112.7,62.3 113.2,62 112.5,60.9 113.7,61 		"/>
	</g>
	<g>
		<path class="st26" d="M88.4,84.4c-0.4,0-0.8,0-1.2,0c-0.6-0.1-1,0.1-1.2,0.8c-0.2,0.5-0.2,0.7,0.2,1.1c0.7,0.6,1.3,1.3,1.9,2
			c1,1.1,1,2.6-0.1,3.6c-0.8,0.8-1.6,1.6-2.4,2.3c-1.2,1.1-2.7,1.1-3.8-0.1c-0.7-0.7-1.3-1.4-2-2c-0.2-0.2-0.6-0.2-0.8-0.1
			c-0.4,0.2-1,0.1-1,0.8c0,1,0,1.9,0,2.9c0,1.5-1.1,2.6-2.6,2.6c-1.2,0-2.4,0-3.6,0c-1.4,0-2.4-1.1-2.5-2.5c0-1,0-2,0.1-3
			c0-0.6-0.4-0.7-0.7-0.9c-0.4-0.2-0.7-0.4-1.1,0.1c-0.6,0.7-1.4,1.3-2,2c-1.1,1-2.6,1-3.7-0.1c-0.8-0.8-1.6-1.6-2.4-2.5
			c-1-1.1-1-2.6,0-3.6c0.7-0.7,1.4-1.4,2.1-2c0.3-0.3,0.4-0.5,0.2-0.9c-0.2-0.4-0.1-1-0.9-1c-1,0-2,0-3-0.1c-1.4,0-2.5-1.1-2.5-2.5
			c0-1.2,0-2.4,0-3.6c0-1.5,1.1-2.5,2.6-2.5c1,0,2,0,3.1,0.1c0.6,0,0.6-0.5,0.8-0.8c0.2-0.3,0.3-0.6-0.1-0.9c-0.7-0.6-1.3-1.4-2-2
			c-1.1-1.2-1.1-2.7,0.1-3.8c0.8-0.8,1.6-1.6,2.4-2.3c1.1-1,2.6-1,3.7,0c0.7,0.7,1.3,1.3,1.9,2c0.3,0.4,0.6,0.5,1,0.2
			c0.4-0.2,1-0.2,0.9-1c-0.1-0.8,0-1.7,0-2.6c0-1.8,1.1-2.8,2.8-2.8c1.1,0,2.1,0,3.2,0.1c1.6,0,2.6,1.1,2.6,2.7c0,1,0,1.9-0.1,2.9
			c0,0.4,0.1,0.6,0.5,0.7c0.4,0.1,0.8,0.6,1.3,0.1c0.6-0.7,1.4-1.3,2-2c1.1-1.1,2.7-1,3.8,0.1c0.8,0.8,1.5,1.6,2.3,2.4
			c1.1,1.2,1.1,2.7-0.1,3.9c-0.6,0.6-1.3,1.3-2,1.9c-0.4,0.3-0.3,0.6-0.2,1c0.2,0.4,0.2,0.9,0.9,0.9c1,0,1.9,0,2.9,0.1
			c1.5,0,2.5,1.1,2.5,2.5c0,1.3,0,2.6-0.1,3.8c-0.1,1.2-1.1,2.1-2.2,2.2C89.6,84.5,89,84.4,88.4,84.4C88.4,84.4,88.4,84.4,88.4,84.4
			z M61.3,89.8c0.8,0.8,1.7,1.6,2.7,2.4c0.7-0.7,1.5-1.5,2.3-2.2c0.7-0.7,1.6-1,2.6-0.6c2.1,0.8,3.3,1,3.1,4.1c0,0.6,0,1.1,0,1.7
			c0,0.2,0,0.4,0,0.7c1.3,0,2.4,0,3.7,0c0-1.1,0-2.2,0-3.2c0-1.4,0.6-2.2,1.9-2.6c0.2-0.1,0.4-0.2,0.7-0.3c1.4-0.6,2.3-0.4,3.4,0.7
			c0.7,0.7,1.5,1.4,2.3,2.1c0.8-0.9,1.6-1.8,2.4-2.7c-0.7-0.7-1.5-1.5-2.2-2.3c-0.8-0.8-0.9-1.8-0.5-2.8c0.1-0.2,0.2-0.5,0.3-0.7
			c0.7-1.6,1.3-2,3.1-2c1,0,2,0,3,0c0-1.2,0-2.4,0-3.8c-1.1,0-2.2,0-3.3,0c-1.3,0-2.2-0.6-2.6-1.9c-0.1-0.2-0.2-0.4-0.3-0.7
			c-0.6-1.5-0.4-2.3,0.7-3.4c0.7-0.7,1.4-1.5,2.2-2.3c-0.8-0.8-1.7-1.6-2.7-2.4c-0.7,0.7-1.4,1.4-2.2,2.1c-0.5,0.4-1,0.8-1.6,0.8
			c-0.6,0.1-1.3-0.2-2-0.4c-1.9-0.8-2.2-1.4-2.2-3.4c0-0.9,0-1.8,0-2.7c-1.2,0-2.4,0-3.8,0c0,1.1,0,2.2,0,3.3c0,1.3-0.6,2.1-1.8,2.5
			c-0.2,0.1-0.5,0.2-0.7,0.3c-1.4,0.6-2.3,0.4-3.4-0.7c-0.7-0.7-1.5-1.4-2.3-2.2c-0.7,0.8-1.5,1.7-2.4,2.7c0.6,0.6,1.4,1.4,2.1,2.2
			c0.9,0.9,1,1.9,0.5,3.1c-0.1,0.3-0.2,0.5-0.3,0.8c-0.6,1.3-1.3,1.8-2.8,1.8c-1.1,0-2.2,0-3.3,0c0,1.2,0,2.4,0,3.6
			c0,0,0,0.1,0.1,0.1c1.1,0,2.2,0.1,3.4,0.1c1.2,0,2.1,0.6,2.5,1.8c0.1,0.3,0.2,0.6,0.3,0.9c0.5,1.3,0.3,2.2-0.6,3.2
			C62.8,88.1,62.1,88.9,61.3,89.8z"/>
		<path class="st26" d="M104.3,86.7c0.8-0.7,1.4-1.4,2-2c0.6-0.6,1.4-0.7,1.9-0.1c0.5,0.5,0.5,1.3-0.2,1.9c-1.9,1.8-3.7,3.6-5.6,5.4
			c-0.3,0.3-0.9,0.4-1.3,0.4c-0.6,0-0.8-0.6-0.9-1.1c-0.4-2.5-0.8-5.1-1.2-7.6c-0.1-0.8,0.3-1.4,1-1.5c0.7-0.1,1.2,0.4,1.4,1.2
			c0.1,0.8,0.3,1.7,0.5,2.5c1.6-7.7,0.3-14.9-4-21.5c-4.3-6.6-10.4-10.7-18.1-12.4c0.2-0.8,0.3-1.5,0.5-2.3
			C94.2,51.7,108.4,67,104.3,86.7z"/>
		<path class="st26" d="M54.7,100.8c10.6,10,29.2,10.8,40.8-2c0.6,0.5,1.2,1,1.8,1.6c-5.8,6.3-12.9,9.9-21.4,10.4
			c-8.5,0.5-15.9-2.2-22.5-7.6c0.2,0.8,0.5,1.5,0.7,2.3c0.3,0.9,0,1.5-0.7,1.8c-0.7,0.2-1.3-0.1-1.6-1c-0.8-2.5-1.6-4.9-2.4-7.4
			c-0.2-0.5-0.2-1,0.2-1.5C50,97,50.5,97,51,97.1c2.4,0.7,4.8,1.5,7.1,2.2c0.9,0.3,1.3,0.9,1,1.6c-0.2,0.7-0.9,1-1.8,0.7
			C56.6,101.4,55.7,101.2,54.7,100.8z"/>
		<path class="st26" d="M63,50.6c-0.8,0-1.7-0.1-2.5-0.1c-0.9,0-1.4-0.5-1.4-1.2c0-0.8,0.5-1.2,1.5-1.2c2.6,0.1,5.2,0.3,7.8,0.4
			c0.5,0,1,0.2,1.2,0.7c0.2,0.5,0.1,1-0.3,1.5c-1.5,2-3.1,3.9-4.6,5.9c-0.6,0.8-1.3,0.9-1.9,0.4c-0.6-0.5-0.6-1.2,0-1.9
			c0.5-0.7,1-1.3,1.6-2c-12.4,4.1-23,19.2-17.4,36.2c-0.7,0.3-1.5,0.5-2.3,0.8c-2.6-8-2.3-15.8,1.3-23.3C49.5,59,55.3,53.8,63,50.6z
			"/>
		<path class="st26" d="M82.2,80c-0.1,4.6-3.8,8.2-8.5,8.1c-4.5-0.1-8.1-3.9-8-8.5c0.1-4.4,3.9-8.1,8.4-8
			C78.7,71.7,82.3,75.5,82.2,80z M79.8,79.9c0-3.2-2.6-5.8-5.8-5.8c-3.2,0-5.8,2.6-5.8,5.8c0,3.2,2.6,5.8,5.8,5.8
			C77.2,85.7,79.8,83.1,79.8,79.9z"/>
	</g>
</g>
</svg>
