<?xml version="1.0" encoding="utf-8"?>
<svg id="Layer_1" xmlns="http://www.w3.org/2000/svg" viewBox="0 0 149.3 157.7" xml:space="preserve">
<style type="text/css">
	.st0 {
    fill: #A7A9AC;
  }

  .st26 {
    fill: #A41737;
  }

  .st28 {
    fill: #E6B122;
  }
</style>

  <g>
		<g>
			<polygon class="st0" points="32.2,69.6 31,69.7 31.7,68.6 31.2,68.3 30.6,69.5 29.9,68.3 29.4,68.6 30.2,69.7 28.9,69.6
				28.9,70.2 30.2,70.1 29.5,71.2 30,71.5 30.6,70.3 31.2,71.5 31.7,71.2 31,70.1 32.2,70.2 			"/>
      <polygon class="st0" points="63.1,34.9 62,34.9 62.6,33.9 62.2,33.7 61.6,34.7 61.1,33.7 60.6,34 61.3,34.9 60.1,34.8 60.1,35.3
				61.3,35.3 60.6,36.2 61.1,36.5 61.6,35.5 62.2,36.5 62.6,36.2 62,35.3 63.1,35.4 			"/>
      <polygon class="st0" points="29.1,34.3 28.2,34.4 28.7,33.6 28.4,33.4 28,34.2 27.5,33.4 27.2,33.7 27.7,34.4 26.8,34.3
				26.8,34.7 27.7,34.7 27.2,35.4 27.6,35.6 28,34.8 28.4,35.6 28.7,35.4 28.2,34.7 29.1,34.7 			"/>
      <path class="st28" d="M97.9,45.1c-1,0-1.8,0.8-1.8,1.8c0,1,0.8,1.8,1.8,1.8c1,0,1.8-0.8,1.8-1.8C99.7,45.9,98.9,45.1,97.9,45.1z
				 M97.9,47.7c-0.5,0-0.9-0.4-0.9-0.9c0-0.5,0.4-0.9,0.9-0.9c0.5,0,0.9,0.4,0.9,0.9C98.7,47.3,98.4,47.7,97.9,47.7z"/>
      <path class="st28" d="M118.8,34.5c-0.7,0-1.3,0.6-1.3,1.3c0,0.7,0.6,1.3,1.3,1.3c0.7,0,1.3-0.6,1.3-1.3
				C120,35,119.5,34.5,118.8,34.5z M118.8,36.3c-0.3,0-0.6-0.3-0.6-0.6s0.3-0.6,0.6-0.6c0.3,0,0.6,0.3,0.6,0.6
				S119.1,36.3,118.8,36.3z"/>
      <path class="st28" d="M86.1,30.2c-0.7,0-1.3,0.6-1.3,1.3c0,0.7,0.6,1.3,1.3,1.3c0.7,0,1.3-0.6,1.3-1.3
				C87.4,30.7,86.8,30.2,86.1,30.2z M86.1,32c-0.3,0-0.6-0.3-0.6-0.6s0.3-0.6,0.6-0.6c0.3,0,0.6,0.3,0.6,0.6S86.5,32,86.1,32z"/>
      <path class="st28" d="M41.7,50.2c-0.7,0-1.3,0.6-1.3,1.3c0,0.7,0.6,1.3,1.3,1.3c0.7,0,1.3-0.6,1.3-1.3
				C42.9,50.8,42.3,50.2,41.7,50.2z M41.7,52.1c-0.3,0-0.6-0.3-0.6-0.6s0.3-0.6,0.6-0.6c0.3,0,0.6,0.3,0.6,0.6S42,52.1,41.7,52.1z"
      />
      <path class="st28" d="M121.2,72.1c-0.7,0-1.3,0.6-1.3,1.3c0,0.7,0.6,1.3,1.3,1.3c0.7,0,1.3-0.6,1.3-1.3
				C122.4,72.6,121.9,72.1,121.2,72.1z M121.2,73.9c-0.3,0-0.6-0.3-0.6-0.6c0-0.3,0.3-0.6,0.6-0.6c0.3,0,0.6,0.3,0.6,0.6
				C121.8,73.7,121.5,73.9,121.2,73.9z"/>
      <polygon class="st0" points="113.7,60.4 112.5,60.5 113.2,59.4 112.7,59.1 112.1,60.3 111.4,59.1 110.9,59.4 111.7,60.5
				110.4,60.4 110.4,61 111.7,60.9 111,62 111.5,62.3 112.1,61.1 112.7,62.3 113.2,62 112.5,60.9 113.7,61 			"/>
		</g>
    <g>
			<g>
				<path class="st26" d="M66,62.6c0,0.5-0.2,0.9-0.7,1.2c-0.6,0.2-1.1,0.2-1.5-0.3c-1.4-1.3-2.7-2.7-4-4.1c-0.3-0.3-0.7-0.6-0.9-1
					c-0.5-0.5-0.4-1.3,0.1-1.8c0.5-0.5,1.2-0.5,1.7,0c1.7,1.7,3.4,3.4,5.1,5.1C65.9,62,65.9,62.3,66,62.6z"/>
        <path class="st26" d="M77.4,63.9c-0.6,0-1-0.3-1.2-0.7c-0.2-0.5-0.1-1,0.3-1.4c1-1,2-2,3-3c0.6-0.6,1.3-1.3,1.9-1.9
					c0.6-0.6,1.3-0.6,1.9-0.1c0.5,0.5,0.5,1.3-0.1,1.9c-1.6,1.6-3.2,3.2-4.8,4.9C78,63.7,77.7,63.9,77.4,63.9z"/>
        <path class="st26" d="M72.3,57.6c0,0.8,0,1.7,0,2.5c0,0.8-0.5,1.3-1.2,1.3c-0.7,0-1.3-0.5-1.3-1.3c0-1.7,0-3.4,0-5.1
					c0-0.8,0.5-1.2,1.3-1.2c0.7,0,1.2,0.5,1.2,1.3C72.3,55.9,72.3,56.7,72.3,57.6z"/>
        <path class="st26" d="M71,86.5c1,0,2,0,2.9,0.3c2.6,0.7,4.6,3.2,4.6,5.8c0,0.9-0.4,1.4-1.2,1.5c-0.8,0.1-1.3-0.5-1.4-1.4
					c-0.2-2.3-1.7-3.7-4-3.7c-1,0-1.9-0.1-2.9,0.1c-1.8,0.3-3,1.7-3.2,3.5c0,0.1,0,0.3,0,0.4c-0.1,0.7-0.7,1.1-1.3,1.1
					c-0.7,0-1.2-0.6-1.2-1.3c-0.1-3,2.4-5.9,5.4-6.2C69.6,86.6,70.3,86.6,71,86.5z"/>
        <path class="st26" d="M71.1,74c-2.8,0-5.1,2.2-5.1,5c0,2.8,2.2,5.1,5,5.1c2.8,0,5.1-2.2,5.1-5C76,76.3,73.9,74,71.1,74z
					 M71,81.5c-1.4,0-2.5-1.1-2.5-2.5c0-1.4,1.1-2.5,2.5-2.5c1.4,0,2.6,1.1,2.5,2.5C73.5,80.4,72.4,81.5,71,81.5z"/>
			</g>
      <path class="st26" d="M105,115.9c-5.5-6.7-11.1-13.4-16.6-20.1c-0.4-0.4-0.4-0.7-0.1-1.2c2.4-4,3.4-8.4,2.8-13
				c-1.3-10.1-9.8-17.6-19.6-17.6c-1.5,0-2.6,0.1-3.7,0.3c-11,1.9-18.2,12-16.6,23c2,13.2,16.4,20.9,28.5,15.1
				c0.7-0.3,1-0.3,1.5,0.3c5.4,6.6,10.8,13.2,16.2,19.8c1.3,1.6,3.1,2.2,5.1,1.7C106.1,123.3,107.5,118.9,105,115.9z M71,101.7
				c-9.7,0-17.6-7.9-17.6-17.6c0-9.7,8-17.6,17.7-17.6c9.7,0,17.6,7.9,17.6,17.7C88.6,93.8,80.7,101.7,71,101.7z M102.1,121.6
				c-1,0.4-2.1,0.1-2.9-0.8c-1.4-1.7-2.8-3.4-4.2-5.1c-4-4.9-7.9-9.7-11.9-14.6c-0.4-0.5-0.4-0.7,0.1-1.1c1-0.7,1.8-1.5,2.6-2.3
				c0.3-0.4,0.5-0.4,0.9,0c3.2,3.9,6.4,7.7,9.5,11.6c2.3,2.7,4.5,5.5,6.8,8.2c0.4,0.5,0.7,1.1,0.7,1.8
				C103.7,120.3,103.1,121.2,102.1,121.6z"/>
      <path class="st26" d="M71,69c-8.4,0-15.1,6.7-15.1,15.1c0,8.4,6.7,15.1,15.1,15.1c8.3,0,15.1-6.7,15.1-15.1
				C86.1,75.7,79.4,69,71,69z M71,96.6c-7,0-12.6-5.6-12.6-12.6c0-7,5.6-12.6,12.5-12.6c7,0,12.6,5.6,12.6,12.5
				C83.6,91,78,96.6,71,96.6z"/>
      <g>
				<path class="st26" d="M103,91.3c0,0.7-0.3,1.1-0.8,1.1c-0.5,0.1-0.9-0.3-1-1c-0.2-1.5-1.2-2.5-2.8-2.5c-0.7,0-1.4-0.1-2.1,0.1
					c-1.2,0.2-2,1.2-2.1,2.4c-0.1,0.7-0.4,1.1-1,1c-0.6-0.1-0.9-0.5-0.8-1.2c0.3-2.3,1.9-3.9,4.2-4c1-0.1,2.1-0.1,3.1,0.1
					C101.6,87.7,102.9,89.4,103,91.3z"/>
        <path class="st26" d="M97.7,78.3c-1.9,0-3.5,1.6-3.5,3.5c0,1.9,1.6,3.5,3.5,3.5c1.9,0,3.5-1.6,3.5-3.5
					C101.2,79.9,99.6,78.3,97.7,78.3z M97.7,83.6c-1,0-1.7-0.7-1.8-1.7c0-1,0.8-1.8,1.7-1.8c1,0,1.8,0.8,1.8,1.8
					C99.5,82.8,98.7,83.6,97.7,83.6z"/>
			</g>
      <g>
				<path class="st26" d="M50,91.3c0,0.7-0.3,1.1-0.8,1.1c-0.5,0.1-0.9-0.3-1-1c-0.2-1.5-1.2-2.5-2.8-2.5c-0.7,0-1.4-0.1-2.1,0.1
					c-1.2,0.2-2,1.2-2.1,2.4c-0.1,0.7-0.4,1.1-1,1c-0.6-0.1-0.9-0.5-0.8-1.2c0.3-2.3,1.9-3.9,4.2-4c1-0.1,2.1-0.1,3.1,0.1
					C48.6,87.7,50,89.4,50,91.3z"/>
        <path class="st26" d="M44.8,78.3c-1.9,0-3.5,1.6-3.5,3.5c0,1.9,1.6,3.5,3.5,3.5c1.9,0,3.5-1.6,3.5-3.5
					C48.3,79.9,46.7,78.3,44.8,78.3z M44.8,83.6c-1,0-1.7-0.7-1.8-1.7c0-1,0.8-1.8,1.7-1.8c1,0,1.8,0.8,1.8,1.8
					C46.5,82.8,45.7,83.6,44.8,83.6z"/>
			</g>
		</g>
	</g>
</svg>
