<?xml version="1.0" encoding="utf-8"?>
<svg id="Layer_1" xmlns="http://www.w3.org/2000/svg" viewBox="0 0 149.3 157.7" xml:space="preserve">
<style type="text/css">
	.st0 {
    fill: #A7A9AC;
  }

  .st26 {
    fill: #A41737;
  }

  .st28 {
    fill: #E6B122;
  }
</style>
  <g>
	  <g>
		<polygon class="st0" points="32.3,69.6 31,69.7 31.8,68.6 31.3,68.3 30.6,69.5 30,68.3 29.5,68.6 30.2,69.7 29,69.6 29,70.2
			30.3,70.1 29.5,71.2 30,71.5 30.7,70.3 31.3,71.5 31.8,71.2 31.1,70.1 32.3,70.2 		"/>
      <polygon class="st0" points="63.2,34.9 62,34.9 62.7,33.9 62.2,33.7 61.7,34.7 61.1,33.7 60.7,34 61.3,34.9 60.2,34.8 60.2,35.3
			61.4,35.3 60.7,36.2 61.2,36.5 61.7,35.5 62.3,36.5 62.7,36.2 62.1,35.3 63.2,35.4 		"/>
      <polygon class="st0" points="29.2,34.3 28.3,34.4 28.8,33.6 28.5,33.4 28,34.2 27.6,33.4 27.3,33.7 27.8,34.4 26.9,34.3
			26.9,34.7 27.8,34.7 27.3,35.4 27.6,35.6 28.1,34.8 28.5,35.6 28.8,35.4 28.3,34.7 29.2,34.7 		"/>
      <path class="st28" d="M97.9,45.1c-1,0-1.8,0.8-1.8,1.8c0,1,0.8,1.8,1.8,1.8c1,0,1.8-0.8,1.8-1.8C99.7,45.9,98.9,45.1,97.9,45.1z
			 M97.9,47.7c-0.5,0-0.9-0.4-0.9-0.9c0-0.5,0.4-0.9,0.9-0.9s0.9,0.4,0.9,0.9C98.8,47.3,98.4,47.7,97.9,47.7z"/>
      <path class="st28" d="M118.9,34.5c-0.7,0-1.3,0.6-1.3,1.3c0,0.7,0.6,1.3,1.3,1.3c0.7,0,1.3-0.6,1.3-1.3
			C120.1,35,119.5,34.5,118.9,34.5z M118.9,36.3c-0.3,0-0.6-0.3-0.6-0.6s0.3-0.6,0.6-0.6c0.3,0,0.6,0.3,0.6,0.6
			S119.2,36.3,118.9,36.3z"/>
      <path class="st28" d="M86.2,30.2c-0.7,0-1.3,0.6-1.3,1.3c0,0.7,0.6,1.3,1.3,1.3c0.7,0,1.3-0.6,1.3-1.3
			C87.4,30.7,86.9,30.2,86.2,30.2z M86.2,32c-0.3,0-0.6-0.3-0.6-0.6s0.3-0.6,0.6-0.6c0.3,0,0.6,0.3,0.6,0.6S86.5,32,86.2,32z"/>
      <path class="st28" d="M41.7,50.2c-0.7,0-1.3,0.6-1.3,1.3c0,0.7,0.6,1.3,1.3,1.3c0.7,0,1.3-0.6,1.3-1.3
			C43,50.8,42.4,50.2,41.7,50.2z M41.7,52.1c-0.3,0-0.6-0.3-0.6-0.6s0.3-0.6,0.6-0.6s0.6,0.3,0.6,0.6S42.1,52.1,41.7,52.1z"/>
      <path class="st28" d="M121.3,72.1c-0.7,0-1.3,0.6-1.3,1.3c0,0.7,0.6,1.3,1.3,1.3c0.7,0,1.3-0.6,1.3-1.3
			C122.5,72.6,122,72.1,121.3,72.1z M121.3,73.9c-0.3,0-0.6-0.3-0.6-0.6c0-0.3,0.3-0.6,0.6-0.6c0.3,0,0.6,0.3,0.6,0.6
			C121.9,73.7,121.6,73.9,121.3,73.9z"/>
      <polygon class="st0" points="113.8,60.4 112.5,60.5 113.2,59.4 112.7,59.1 112.1,60.3 111.5,59.1 111,59.4 111.7,60.5 110.5,60.4
			110.5,61 111.8,60.9 111,62 111.5,62.3 112.1,61.1 112.8,62.3 113.3,62 112.6,60.9 113.8,61 		"/>
	</g>
    <g>
		<path class="st26" d="M101.7,99.3c0,0-0.5-0.5-0.6-0.7c-4-4.1-8-8.3-12-12.4c-1.4-1.4-3-2.1-5-2.1c-3.8,0-7.6,0-11.4,0
			c-3,0-4.8-1.8-4.8-4.8c0-0.5,0-1,0-1.6h2.6c0,0.6,0,1.1,0,1.7c0,1.4,0.7,2.1,2.1,2.1c3.9,0,7.7,0,11.6,0c2.7,0,5,1,6.8,2.9
			c2.3,2.4,4.6,4.8,7,7.2c0.2,0.2,0.3,0.4,0.4,0.6c0.1,0,0.1,0,0.2-0.1c0-0.5-0.1-1-0.1-1.5c-0.1-1.5-0.3-2.9-0.4-4.4
			c-0.3-2.6,1.5-4.7,4.2-4.7c0.9,0,1.8,0,2.7,0c1.3,0,2-0.7,2-2c0-6.1,0-12.2,0-18.4c0-1.3-0.7-2-2-2c-1.8,0-3.6,0-5.5,0
			c-8.9,0-17.8,0-26.6,0c-1.7,0-2.3,0.6-2.3,2.3c0,3.4,0,6.8,0,10.3c0,0.2,0,0.5,0,0.8h-2.6c0-0.2,0-0.5,0-0.7c0-3.5,0-7.1,0-10.6
			c0-2.8,1.9-4.7,4.7-4.7c10.7,0,21.5,0,32.2,0c2.9,0,4.7,1.9,4.7,4.7c0,6.1,0,12.2,0,18.2c0,2.8-1.8,4.7-4.7,4.7
			c-0.9,0-1.7,0-2.6,0c-1.3,0-1.8,0.6-1.7,1.9c0.3,3.4,0.9,9.6,1.1,11.7C101.8,98.2,101.8,98.7,101.7,99.3L101.7,99.3z"/>
      <path class="st26" d="M47.5,109.3c2.4-2.5,4.9-5,7.3-7.5c1.6-1.7,3.7-2.7,6-3c0.3,0,0.5,0,0.8,0c3.9,0,7.7,0,11.6,0
			c1.7,0,2.3-0.6,2.3-2.3c0-3.4,0-6.9,0-10.3c0-0.2,0-0.4,0-0.7c0.9,0,1.7,0,2.6,0c0,0.2,0,0.5,0,0.7c0,3.6,0,7.1,0,10.7
			c0,2.7-1.9,4.6-4.6,4.6c-3.9,0-7.8,0-11.6,0c-1.9,0-3.6,0.7-5,2.1c-4,4.2-12.7,13-12.7,13s0.1-1.5,0.1-2.2c0.3-3.8,0.6-7.5,1-11.3
			c0.1-1-0.6-1.6-1.5-1.6c-0.9,0-1.9,0-2.8,0c-2.7,0-4.6-1.9-4.6-4.6c0-6.1,0-12.2,0-18.4c0-2.7,1.9-4.6,4.6-4.6
			c10.8,0,21.7,0,32.5,0c2.7,0,4.6,1.9,4.6,4.6c0,0.6,0,1.2,0,1.8c-0.9,0-1.7,0-2.6,0c0-0.6,0-1.2,0-1.8c0-1.3-0.7-2-2-2
			c-10.8,0-21.6,0-32.4,0c-1.3,0-2,0.7-2,2c0,6.1,0,12.2,0,18.3c0,1.3,0.7,2,2,2c0.9,0,1.9,0,2.8,0c2.5,0,4.3,1.9,4.1,4.4
			c-0.1,1.6-0.3,3.3-0.5,4.9c0,0.4-0.1,0.8-0.1,1.2C47.4,109.3,47.4,109.3,47.5,109.3z"/>
      <path class="st26" d="M64.1,94.3c0,0.7-0.4,1.2-1,1.4c-0.6,0.1-1.2-0.1-1.5-0.7c-0.5-1.1-0.9-2.2-1.4-3.3
			c-0.2-0.4-0.4-0.6-0.8-0.5c-1.5,0-3,0-4.5,0c-0.5,0-0.7,0.2-0.8,0.6c-0.4,1-0.8,2.1-1.3,3.1c-0.3,0.8-1,1.2-1.8,0.9
			c-0.7-0.3-1-1-0.7-1.9c1.8-4.5,3.7-9,5.5-13.5c0.2-0.6,0.6-0.9,1.3-0.9c0.6,0,1,0.4,1.3,0.9c1.8,4.5,3.7,9,5.5,13.5
			C64,93.9,64,94.2,64.1,94.3z M55.4,88.3c1.2,0,2.3,0,3.5,0c-0.6-1.4-1.1-2.8-1.7-4.2C56.6,85.6,56,86.9,55.4,88.3z"/>
	</g>
    <g>
		<path class="st26" d="M94.7,76.3c0,0-1.7,2.5-4.5,2.5c-3.3,0.1-4.6-2.4-4.7-3.8c-0.2-2.7,1-5.3,1.9-6.2c0,0-1.9-1-2.1-1.9
			c0,0,0.1-3.7,2.7-4.2c1.7-0.3,3,1.4,3,1.4s-3.4-0.7-4.2,1.7c0,0,1.6,1.2,2.6,0.8c0,0,1.2-0.6,3-1.3l-0.2,2.4c0,0-5.8,1.7-5.9,6
			c-0.1,2.6,2.5,3.1,4.3,3.1C91.3,76.7,93.8,76.5,94.7,76.3z"/>
	</g>
</g>
</svg>
