<?xml version="1.0" encoding="utf-8"?>
<svg xmlns="http://www.w3.org/2000/svg" viewBox="0 0 149.3 157.7" xml:space="preserve">
<style type="text/css">
	.st0 {
    fill: #A7A9AC;
  }

  .st26 {
    fill: #A41737;
  }

  .st28 {
    fill: #E6B122;
  }
</style>
  <g>
	<g>
		<polygon class="st0" points="32.9,69.9 31.6,69.9 32.4,68.8 31.9,68.6 31.2,69.7 30.6,68.6 30.1,68.9 30.8,69.9 29.6,69.8
			29.6,70.4 30.9,70.4 30.1,71.4 30.6,71.7 31.3,70.6 31.9,71.7 32.4,71.4 31.7,70.4 32.9,70.4 		"/>
    <polygon class="st0" points="63.8,35.1 62.6,35.1 63.3,34.2 62.8,33.9 62.3,35 61.7,33.9 61.3,34.2 61.9,35.1 60.8,35.1
			60.8,35.6 61.9,35.5 61.3,36.5 61.8,36.7 62.3,35.7 62.9,36.7 63.3,36.5 62.7,35.5 63.8,35.6 		"/>
    <polygon class="st0" points="29.8,34.6 28.9,34.6 29.4,33.9 29.1,33.7 28.6,34.5 28.2,33.7 27.9,33.9 28.4,34.6 27.5,34.6
			27.5,35 28.4,34.9 27.9,35.6 28.2,35.8 28.7,35.1 29.1,35.8 29.4,35.6 28.9,34.9 29.8,35 		"/>
    <path class="st28" d="M98.5,45.3c-1,0-1.8,0.8-1.8,1.8c0,1,0.8,1.8,1.8,1.8c1,0,1.8-0.8,1.8-1.8C100.3,46.1,99.5,45.3,98.5,45.3z
			 M98.5,48c-0.5,0-0.9-0.4-0.9-0.9s0.4-0.9,0.9-0.9c0.5,0,0.9,0.4,0.9,0.9S99,48,98.5,48z"/>
    <path class="st28" d="M119.5,34.7c-0.7,0-1.3,0.6-1.3,1.3c0,0.7,0.6,1.3,1.3,1.3c0.7,0,1.3-0.6,1.3-1.3
			C120.7,35.3,120.1,34.7,119.5,34.7z M119.5,36.6c-0.3,0-0.6-0.3-0.6-0.6s0.3-0.6,0.6-0.6s0.6,0.3,0.6,0.6S119.8,36.6,119.5,36.6z"
    />
    <path class="st28" d="M86.8,30.4c-0.7,0-1.3,0.6-1.3,1.3c0,0.7,0.6,1.3,1.3,1.3c0.7,0,1.3-0.6,1.3-1.3C88,31,87.5,30.4,86.8,30.4z
			 M86.8,32.3c-0.3,0-0.6-0.3-0.6-0.6c0-0.3,0.3-0.6,0.6-0.6c0.3,0,0.6,0.3,0.6,0.6C87.4,32,87.1,32.3,86.8,32.3z"/>
    <path class="st28" d="M42.3,50.5c-0.7,0-1.3,0.6-1.3,1.3c0,0.7,0.6,1.3,1.3,1.3c0.7,0,1.3-0.6,1.3-1.3C43.6,51,43,50.5,42.3,50.5z
			 M42.3,52.3c-0.3,0-0.6-0.3-0.6-0.6s0.3-0.6,0.6-0.6c0.3,0,0.6,0.3,0.6,0.6S42.7,52.3,42.3,52.3z"/>
    <path class="st28" d="M121.9,72.3c-0.7,0-1.3,0.6-1.3,1.3c0,0.7,0.6,1.3,1.3,1.3c0.7,0,1.3-0.6,1.3-1.3
			C123.1,72.9,122.6,72.3,121.9,72.3z M121.9,74.2c-0.3,0-0.6-0.3-0.6-0.6c0-0.3,0.3-0.6,0.6-0.6c0.3,0,0.6,0.3,0.6,0.6
			C122.5,73.9,122.2,74.2,121.9,74.2z"/>
    <polygon class="st0" points="114.4,60.7 113.1,60.7 113.8,59.6 113.3,59.4 112.7,60.5 112.1,59.4 111.6,59.7 112.3,60.7
			111.1,60.6 111.1,61.2 112.4,61.2 111.6,62.2 112.1,62.5 112.7,61.4 113.4,62.5 113.9,62.2 113.1,61.2 114.4,61.2 		"/>
	</g>
    <g>
		<path class="st26" d="M46,107.9c2.8,3.4,5.6,6.8,8.4,10.2c0.4-0.4,0.8-0.7,1.2-1c1.2-0.9,2.5-1.3,4-1c5.9,1.1,11.9,2.1,17.8,3.2
			c1,0.2,1.9-0.1,2.7-0.7c4.6-3.7,9.2-7.5,13.7-11.2c1.5-1.3,3.1-2.5,4.6-3.8c1.4-1.2,1.7-3,0.6-4.3c-1.1-1.3-2.9-1.5-4.3-0.3
			c-2.2,1.7-4.3,3.5-6.5,5.2c-0.2,0.2-0.4,0.4-0.6,0.4c-0.4,0-0.8,0-1-0.3c-0.2-0.2-0.1-0.7-0.1-1.1c0-0.2,0.2-0.3,0.4-0.4
			c2.3-1.8,4.5-3.7,6.8-5.5c1.5-1.2,3.2-1.5,5-0.7c1.8,0.7,2.8,2.1,3,4c0.2,1.8-0.5,3.3-1.9,4.4c-5.3,4.3-10.5,8.6-15.8,12.9
			c-0.9,0.7-1.7,1.4-2.6,2.1c-1.3,1.1-2.7,1.4-4.4,1.1c-5.9-1.1-11.7-2.1-17.6-3.2c-0.9-0.2-1.8,0-2.5,0.6c-0.4,0.3-0.8,0.6-1.2,1
			c0.3,0.4,0.7,0.8,1,1.2c0.5,0.6,0.4,1.1-0.1,1.5c-1,0.8-2,1.7-3,2.5c-0.5,0.4-1.1,0.3-1.4-0.1c-0.4-0.4-0.3-1,0.2-1.4
			c0.8-0.6,1.5-1.3,2.4-2c-3.9-4.8-7.8-9.6-11.8-14.4c-0.8,0.6-1.5,1.2-2.3,1.9c-0.2,0.1-0.3,0.3-0.5,0.4c-0.5,0.2-0.9,0.1-1.2-0.3
			c-0.3-0.4-0.3-0.9,0.1-1.2c1.1-1,2.3-1.9,3.5-2.8c0.4-0.3,0.9-0.2,1.3,0.2c0.3,0.4,0.7,0.8,1,1.2c0.8-0.7,1.6-1.3,2.4-2
			c1.8-1.5,3.7-3.1,5.5-4.6c2-1.6,4.2-2.2,6.8-1.7c6.8,1.5,13.7,2.9,20.5,4.4c2.7,0.6,4.4,3,3.9,5.7c-0.5,2.6-2.9,4.2-5.7,3.8
			c-3.5-0.6-7-1.2-10.5-1.8c-0.3,0-0.5-0.1-0.8-0.2c-0.4-0.2-0.5-0.6-0.4-1.1c0.2-0.5,0.5-0.7,1-0.6c1.2,0.2,2.4,0.4,3.6,0.6
			c2.4,0.4,4.9,0.8,7.3,1.2c1.8,0.3,3.3-0.6,3.6-2.3c0.3-1.6-0.7-3.1-2.5-3.5c-6.9-1.5-13.8-3-20.6-4.4c-1.7-0.4-3.3,0-4.6,1
			c-2.8,2.2-5.4,4.5-8.2,6.7C46.1,107.8,46,107.8,46,107.9z"/>
	</g>
    <g>
		<g>
			<g id="check-box-outline_3_">
				<path class="st26" d="M67.5,56.6L67.5,56.6c-0.2,0.2-0.2,0.6,0,0.8l1.8,1.8c0.2,0.2,0.6,0.2,0.8,0l4.9-4.9
					c0.2-0.2,0.2-0.6,0-0.8l0,0c-0.2-0.2-0.6-0.2-0.8,0l-4.1,4.1c-0.2,0.2-0.6,0.2-0.8,0l-1-1C68,56.4,67.7,56.4,67.5,56.6z
					 M73.7,61.4h-6.9c-0.3,0-0.6-0.3-0.6-0.6v-6.9c0-0.3,0.3-0.6,0.6-0.6h4.6c0.3,0,0.6-0.3,0.6-0.6v0c0-0.3-0.3-0.6-0.6-0.6h-4.6
					c-0.9,0-1.7,0.8-1.7,1.7v6.9c0,0.9,0.8,1.7,1.7,1.7h6.9c0.9,0,1.7-0.8,1.7-1.7v-3.5c0-0.3-0.3-0.6-0.6-0.6h0
					c-0.3,0-0.6,0.3-0.6,0.6v3.5C74.2,61.1,74,61.4,73.7,61.4z"/>
			</g>
		</g>
      <g>
			<g id="check-box-outline_2_">
				<path class="st26" d="M67.5,69.5L67.5,69.5c-0.2,0.2-0.2,0.6,0,0.8l1.8,1.8c0.2,0.2,0.6,0.2,0.8,0l4.9-4.9
					c0.2-0.2,0.2-0.6,0-0.8v0c-0.2-0.2-0.6-0.2-0.8,0l-4.1,4.1c-0.2,0.2-0.6,0.2-0.8,0l-1-1C68,69.3,67.7,69.3,67.5,69.5z
					 M73.7,74.2h-6.9c-0.3,0-0.6-0.3-0.6-0.6v-6.9c0-0.3,0.3-0.6,0.6-0.6h4.6c0.3,0,0.6-0.3,0.6-0.6v0c0-0.3-0.3-0.6-0.6-0.6h-4.6
					c-0.9,0-1.7,0.8-1.7,1.7v6.9c0,0.9,0.8,1.7,1.7,1.7h6.9c0.9,0,1.7-0.8,1.7-1.7v-3.5c0-0.3-0.3-0.6-0.6-0.6h0
					c-0.3,0-0.6,0.3-0.6,0.6v3.5C74.2,74,74,74.2,73.7,74.2z"/>
			</g>
		</g>
      <path class="st26" d="M73.4,77.9h-3.3h0h-3.3c-0.9,0-1.7,0.8-1.7,1.7v6.9c0,0.9,0.8,1.7,1.7,1.7h3.3h0h3.3c0.9,0,1.7-0.8,1.7-1.7
			v-6.9C75.2,78.7,74.4,77.9,73.4,77.9z M74,86.5c0,0.3-0.3,0.6-0.6,0.6h-3.4v0h-3.3c-0.3,0-0.6-0.3-0.6-0.6v-6.9
			c0-0.3,0.3-0.6,0.6-0.6h3.4v0h3.3c0.3,0,0.6,0.3,0.6,0.6V86.5z"/>
      <path class="st26" d="M89.3,54.6h-10c-0.6,0-1.1-0.5-1.1-1.1v0c0-0.6,0.5-1.1,1.1-1.1h10c0.6,0,1.1,0.5,1.1,1.1v0
			C90.4,54.1,89.9,54.6,89.3,54.6z"/>
      <path class="st26" d="M84.4,58.8h-5.1c-0.6,0-1.1-0.5-1.1-1.1v0c0-0.6,0.5-1.1,1.1-1.1h5.1c0.6,0,1.1,0.5,1.1,1.1v0
			C85.5,58.3,85,58.8,84.4,58.8z"/>
      <path class="st26" d="M89.3,67.3h-10c-0.6,0-1.1-0.5-1.1-1.1l0,0c0-0.6,0.5-1.1,1.1-1.1h10c0.6,0,1.1,0.5,1.1,1.1l0,0
			C90.4,66.8,89.9,67.3,89.3,67.3z"/>
      <path class="st26" d="M89.3,80.2h-10c-0.6,0-1.1-0.5-1.1-1.1l0,0c0-0.6,0.5-1.1,1.1-1.1h10c0.6,0,1.1,0.5,1.1,1.1l0,0
			C90.4,79.7,89.9,80.2,89.3,80.2z"/>
      <path class="st26" d="M84.4,71.5h-5.1c-0.6,0-1.1-0.5-1.1-1.1v0c0-0.6,0.5-1.1,1.1-1.1h5.1c0.6,0,1.1,0.5,1.1,1.1v0
			C85.5,71,85,71.5,84.4,71.5z"/>
      <path class="st26" d="M95.6,47.1H60c-0.4,0-0.7,0.3-0.7,0.7v45.1c0,0.4,0.3,0.7,0.7,0.7h26.3l10-9.9v-36
			C96.3,47.4,96,47.1,95.6,47.1z M86.9,90v-5.6h5.4L86.9,90z M93.9,82.1h-8.3c-0.4,0-0.7,0.3-0.7,0.7v8.5H62c-0.4,0-0.7-0.3-0.7-0.7
			V50.1c0-0.4,0.3-0.7,0.7-0.7h31.2c0.4,0,0.7,0.3,0.7,0.7V82.1z"/>
	</g>
</g>
</svg>
