<svg xmlns="http://www.w3.org/2000/svg" width="24" height="24" viewBox="5.3 6 12 12">
  <g>
    <path
      d="M13.7,7.343a11.538,11.538,0,0,1,.956,2.023,10.732,10.732,0,0,1,.22,1.419c.083-.007.182-.29.193-.6a1.859,1.859,0,0,0-.132-.731,2.07,2.07,0,0,1,.426,1.244c.086.7-.186,1.356-.049,1.414s.436-1.092.251-2a5.237,5.237,0,0,1,.119,1.185c-.029.523-.256,1.191-.119,1.191a4.308,4.308,0,0,0,.28-2.426,4.21,4.21,0,0,1,.129,1.1c-.01.613-.206,1.014-.092,1.059a2.859,2.859,0,0,0,.261-2.182,3.371,3.371,0,0,1,.145.841c.01.376-.154.767-.016.788S17.248,8.6,13.7,7.343"
      />
    <path
      d="M15.567,12.5a.042.042,0,0,1-.033-.016c-.045-.054-.008-.247.043-.514a5.233,5.233,0,0,0,.1-.672,4.158,4.158,0,0,0-.046-.766,2.957,2.957,0,0,1-.271,1.582.044.044,0,0,1-.047.011c-.07-.03-.046-.186-.009-.422a3.569,3.569,0,0,0,.052-1,2.117,2.117,0,0,0-.381-1.185,1.939,1.939,0,0,1,.107.671c-.011.306-.109.6-.2.61a.021.021,0,0,1-.015-.005c-.02-.018-.025-.091-.033-.255a4.458,4.458,0,0,0-.182-1.166,11.631,11.631,0,0,0-.955-2.02l-.015-.025.027.01a3.947,3.947,0,0,1,2.515,2.152,3.265,3.265,0,0,1,.171,1.939c-.01.043-.065.252-.117.252h0a.067.067,0,0,1-.044-.026c-.037-.052-.018-.173.008-.326a2.419,2.419,0,0,0,.043-.446,3.26,3.26,0,0,0-.1-.683,3.143,3.143,0,0,1-.255,2.022.042.042,0,0,1-.044.011c-.066-.026-.042-.145,0-.341a4.019,4.019,0,0,0,.089-.727,4.408,4.408,0,0,0-.082-.9,4.722,4.722,0,0,1-.277,2.209.055.055,0,0,1-.039.024Zm.01-2.388A5.244,5.244,0,0,1,15.7,11.3a5.238,5.238,0,0,1-.1.674,1.143,1.143,0,0,0-.048.5.022.022,0,0,0,.018.008h0c.007,0,.015-.006.025-.016a4.812,4.812,0,0,0,.245-2.4l.02,0a4.241,4.241,0,0,1,.129,1.1,3.872,3.872,0,0,1-.09.731c-.035.18-.059.3-.008.319.007,0,.017,0,.023-.009a3.331,3.331,0,0,0,.224-2.162l.019-.005a3.364,3.364,0,0,1,.146.844,2.381,2.381,0,0,1-.044.449.6.6,0,0,0-.011.311.047.047,0,0,0,.031.018c.018,0,.087-.131.134-.422a3.308,3.308,0,0,0-.284-1.914,4.006,4.006,0,0,0-2.4-1.959,11.49,11.49,0,0,1,.943,2,4.474,4.474,0,0,1,.183,1.172.82.82,0,0,0,.027.241c.073-.006.172-.28.183-.591a1.874,1.874,0,0,0-.131-.726l-.03-.069.047.058a2.1,2.1,0,0,1,.428,1.25,3.563,3.563,0,0,1-.052,1.005c-.034.219-.059.377,0,.4,0,0,.011,0,.026-.008a3.325,3.325,0,0,0,.211-1.983Z"
      fill="#f2f2f2"/>
    <path
      d="M9.527,7.12a11.6,11.6,0,0,1,2.1.754,10.706,10.706,0,0,1,1.16.849c.053-.064-.077-.335-.288-.561a1.873,1.873,0,0,0-.61-.424,2.073,2.073,0,0,1,1.18.578c.555.433.828,1.091.966,1.035s-.465-1.08-1.238-1.593a5.24,5.24,0,0,1,.922.754c.349.39.661,1.023.758.926a4.322,4.322,0,0,0-1.518-1.914,4.2,4.2,0,0,1,.87.688c.426.44.571.862.684.814s-.311-.98-1.359-1.727a3.352,3.352,0,0,1,.7.491c.273.26.432.652.545.569S12.92,5.5,9.527,7.12"
      />
    <path
      d="M14.458,9.458h0c-.07-.006-.18-.169-.333-.394a5.34,5.34,0,0,0-.405-.545,4.224,4.224,0,0,0-.574-.509,2.96,2.96,0,0,1,.927,1.311.042.042,0,0,1-.026.04c-.07.029-.163-.1-.3-.292a3.612,3.612,0,0,0-.671-.744,2.121,2.121,0,0,0-1.107-.568,1.924,1.924,0,0,1,.55.4c.209.224.349.5.288.574a.021.021,0,0,1-.013.007h0c-.028,0-.083-.049-.2-.157a4.488,4.488,0,0,0-.954-.7,11.609,11.609,0,0,0-2.1-.753L9.5,7.123l.025-.012a3.948,3.948,0,0,1,3.3-.257A3.278,3.278,0,0,1,14.315,8.1c.023.039.136.232.093.263a.063.063,0,0,1-.049.012c-.063-.01-.134-.109-.225-.235A2.4,2.4,0,0,0,13.85,7.8a3.188,3.188,0,0,0-.555-.411A3.143,3.143,0,0,1,14.545,9a.043.043,0,0,1-.023.039c-.066.028-.133-.072-.245-.239a3.9,3.9,0,0,0-.45-.577,4.315,4.315,0,0,0-.693-.576A4.729,4.729,0,0,1,14.5,9.4a.059.059,0,0,1-.011.045A.046.046,0,0,1,14.458,9.458ZM12.807,7.749a5.245,5.245,0,0,1,.924.756,5.239,5.239,0,0,1,.407.547c.138.2.257.38.318.385a.019.019,0,0,0,.018-.007c.005,0,.007-.014.006-.029a4.822,4.822,0,0,0-1.521-1.869l.01-.017a4.256,4.256,0,0,1,.872.69,3.882,3.882,0,0,1,.453.58c.1.152.17.253.22.232a.03.03,0,0,0,.011-.023,3.334,3.334,0,0,0-1.372-1.687l.011-.017a3.4,3.4,0,0,1,.7.493,2.579,2.579,0,0,1,.287.349c.084.117.157.219.211.227a.045.045,0,0,0,.034-.008c.013-.014-.03-.156-.2-.4A3.3,3.3,0,0,0,12.636,6.8a4,4,0,0,0-3.08.313,11.568,11.568,0,0,1,2.081.748,4.448,4.448,0,0,1,.958.7.831.831,0,0,0,.19.152c.047-.056-.077-.32-.289-.548a1.863,1.863,0,0,0-.606-.421l-.07-.027.075.008a2.1,2.1,0,0,1,1.186.58,3.672,3.672,0,0,1,.674.748c.13.179.225.309.281.286,0,0,.011-.005.013-.024A3.321,3.321,0,0,0,12.8,7.766Z"
      fill="#f2f2f2"/>
    <path
      d="M6.416,9.915a11.538,11.538,0,0,1,2.023-.956A10.633,10.633,0,0,1,9.858,8.74c-.007-.083-.29-.183-.6-.193a1.86,1.86,0,0,0-.731.131,2.07,2.07,0,0,1,1.244-.426c.7-.086,1.356.186,1.414.049s-1.092-.435-2-.251a5.237,5.237,0,0,1,1.185-.119c.522.029,1.191.256,1.19.119a4.321,4.321,0,0,0-2.425-.28,4.21,4.21,0,0,1,1.1-.129c.613.01,1.014.206,1.059.092a2.861,2.861,0,0,0-2.182-.26,3.347,3.347,0,0,1,.841-.146c.376-.009.766.155.788.016S7.67,6.37,6.416,9.915"
      />
    <path
      d="M6.4,9.938l.01-.026A3.943,3.943,0,0,1,8.558,7.4a3.276,3.276,0,0,1,1.94-.171c.043.011.259.068.252.12a.065.065,0,0,1-.026.043c-.052.038-.173.018-.326-.007a2.408,2.408,0,0,0-.446-.044,3.251,3.251,0,0,0-.683.1,3.145,3.145,0,0,1,2.022.254.044.044,0,0,1,.012.044c-.027.066-.146.043-.342,0a3.919,3.919,0,0,0-.727-.09h-.062a4.413,4.413,0,0,0-.836.083,4.739,4.739,0,0,1,2.209.276.06.06,0,0,1,.024.04.044.044,0,0,1-.016.034c-.054.045-.247.008-.514-.044a5.415,5.415,0,0,0-.672-.1,4.152,4.152,0,0,0-.766.046,2.957,2.957,0,0,1,1.582.271.045.045,0,0,1,.011.047c-.03.071-.186.046-.422.009a3.607,3.607,0,0,0-1-.052,2.125,2.125,0,0,0-1.185.381,1.963,1.963,0,0,1,.671-.107c.306.011.6.109.61.2a.019.019,0,0,1-.005.014c-.018.021-.091.025-.255.033a4.466,4.466,0,0,0-1.166.183,11.551,11.551,0,0,0-2.02.955ZM9.835,7.172a3.551,3.551,0,0,0-3.4,2.72,11.511,11.511,0,0,1,2-.942,4.483,4.483,0,0,1,1.172-.184.836.836,0,0,0,.241-.026c-.006-.073-.28-.173-.591-.183a1.857,1.857,0,0,0-.726.13l-.068.03L8.52,8.67a2.11,2.11,0,0,1,1.249-.428,3.647,3.647,0,0,1,1.006.052c.219.035.377.059.4,0,0,0,0-.011-.008-.026A3.325,3.325,0,0,0,9.185,8.06l0-.02a5.308,5.308,0,0,1,1.188-.119,5.266,5.266,0,0,1,.674.1,1.152,1.152,0,0,0,.5.047.021.021,0,0,0,.008-.018c0-.007-.006-.015-.016-.024a4.809,4.809,0,0,0-2.4-.246l0-.02a4.276,4.276,0,0,1,1.042-.13h.062a3.957,3.957,0,0,1,.731.09c.18.036.3.059.319.009,0-.008,0-.017-.009-.024a3.327,3.327,0,0,0-2.162-.223l-.005-.02a3.416,3.416,0,0,1,.844-.146,2.581,2.581,0,0,1,.45.044.6.6,0,0,0,.31.011.043.043,0,0,0,.018-.03c0-.018-.13-.088-.42-.135A3.148,3.148,0,0,0,9.835,7.172Z"
      fill="#f2f2f2"/>
    <path
      d="M6.193,14.091a11.594,11.594,0,0,1,.754-2.106A10.634,10.634,0,0,1,7.8,10.826c-.064-.054-.335.076-.561.288a1.847,1.847,0,0,0-.424.61,2.069,2.069,0,0,1,.578-1.181c.433-.555,1.091-.828,1.035-.965s-1.08.464-1.593,1.237a5.211,5.211,0,0,1,.754-.921c.39-.349,1.023-.662.925-.758A4.321,4.321,0,0,0,6.6,10.653a4.225,4.225,0,0,1,.688-.87c.44-.426.862-.571.814-.683s-.98.311-1.727,1.358a3.359,3.359,0,0,1,.491-.7c.26-.273.652-.433.569-.546S4.572,10.7,6.193,14.091"
      />
    <path
      d="M6.2,14.121,6.184,14.1a3.948,3.948,0,0,1-.257-3.3A3.268,3.268,0,0,1,7.178,9.3c.038-.023.231-.135.262-.093a.063.063,0,0,1,.012.049c-.01.063-.109.135-.235.225a2.406,2.406,0,0,0-.346.285,3.215,3.215,0,0,0-.412.555,3.245,3.245,0,0,1,1.6-1.251h.013a.043.043,0,0,1,.039.023c.028.065-.072.132-.239.244a3.847,3.847,0,0,0-.577.451,4.341,4.341,0,0,0-.577.693A4.726,4.726,0,0,1,8.473,9.118a.049.049,0,0,1,.044.011.038.038,0,0,1,.013.035c-.006.069-.169.18-.394.332a5.493,5.493,0,0,0-.545.4,4.224,4.224,0,0,0-.509.574,3.057,3.057,0,0,1,1.3-.927h.01a.044.044,0,0,1,.04.026c.029.071-.1.164-.292.3a3.576,3.576,0,0,0-.744.67,2.123,2.123,0,0,0-.568,1.108,1.934,1.934,0,0,1,.4-.551c.224-.209.5-.349.574-.288a.021.021,0,0,1,.007.014c0,.027-.047.082-.157.2a4.443,4.443,0,0,0-.7.953,11.609,11.609,0,0,0-.753,2.1Zm1.219-4.9a1.039,1.039,0,0,0-.387.206A3.317,3.317,0,0,0,5.877,10.98a4.005,4.005,0,0,0,.313,3.081,11.568,11.568,0,0,1,.748-2.081,4.5,4.5,0,0,1,.7-.958.86.86,0,0,0,.152-.189c-.057-.047-.32.076-.547.288a1.852,1.852,0,0,0-.422.606l-.027.07.008-.074a2.1,2.1,0,0,1,.58-1.186,3.651,3.651,0,0,1,.748-.675c.179-.13.308-.224.286-.281a.026.026,0,0,0-.024-.012h-.01a3.4,3.4,0,0,0-1.542,1.253l-.016-.011a5.206,5.206,0,0,1,.755-.924,5.375,5.375,0,0,1,.547-.406c.2-.139.38-.258.385-.318A.019.019,0,0,0,8.5,9.143a.034.034,0,0,0-.029-.005,4.8,4.8,0,0,0-1.869,1.521l-.017-.011a4.332,4.332,0,0,1,.689-.872,3.934,3.934,0,0,1,.581-.453c.152-.1.253-.17.232-.219,0-.008-.014-.01-.023-.011H8.056A3.424,3.424,0,0,0,6.38,10.464l-.017-.01a3.369,3.369,0,0,1,.493-.7A2.437,2.437,0,0,1,7.2,9.467c.117-.085.219-.157.227-.212a.043.043,0,0,0-.009-.034Z"
      fill="#f2f2f2"/>
    <path
      d="M8.988,17.2a11.551,11.551,0,0,1-.956-2.022,10.957,10.957,0,0,1-.22-1.42c-.082.007-.182.291-.192.6a1.86,1.86,0,0,0,.131.731,2.073,2.073,0,0,1-.426-1.244c-.086-.7.186-1.357.049-1.414s-.435,1.092-.251,2A5.229,5.229,0,0,1,7,13.249c.029-.522.256-1.191.119-1.19a4.325,4.325,0,0,0-.28,2.426,4.21,4.21,0,0,1-.129-1.1c.01-.613.206-1.014.092-1.06a2.866,2.866,0,0,0-.26,2.182,3.347,3.347,0,0,1-.146-.841c-.009-.376.155-.766.016-.787s-.973,3.07,2.572,4.323"
      />
    <path
      d="M9.011,17.22l-.026-.009a3.945,3.945,0,0,1-2.516-2.153A3.265,3.265,0,0,1,6.3,13.119c.011-.043.066-.251.117-.251h0a.061.061,0,0,1,.043.026c.038.051.018.172-.007.325a2.426,2.426,0,0,0-.044.446,3.251,3.251,0,0,0,.1.683,3.145,3.145,0,0,1,.254-2.022.044.044,0,0,1,.044-.011c.066.026.043.145,0,.342a3.919,3.919,0,0,0-.09.727,4.315,4.315,0,0,0,.083.9,4.734,4.734,0,0,1,.276-2.208.056.056,0,0,1,.04-.024h0a.043.043,0,0,1,.034.015c.045.054.008.247-.044.515a5.372,5.372,0,0,0-.1.671,4.152,4.152,0,0,0,.046.766,2.962,2.962,0,0,1,.271-1.582.045.045,0,0,1,.047-.011c.071.03.046.186.009.422a3.61,3.61,0,0,0-.052,1,2.122,2.122,0,0,0,.381,1.185,1.931,1.931,0,0,1-.107-.671c.011-.306.109-.6.2-.61a.027.027,0,0,1,.014.005c.021.018.025.091.033.255a4.473,4.473,0,0,0,.183,1.167A11.591,11.591,0,0,0,9,17.2Zm-2.6-4.332c-.019,0-.088.13-.135.421a3.308,3.308,0,0,0,.284,1.914,4,4,0,0,0,2.4,1.959,11.511,11.511,0,0,1-.942-2,4.477,4.477,0,0,1-.184-1.172.826.826,0,0,0-.027-.241c-.073.006-.172.28-.182.591a1.859,1.859,0,0,0,.13.727l.03.068L7.743,15.1a2.107,2.107,0,0,1-.428-1.249,3.649,3.649,0,0,1,.052-1.006c.035-.219.059-.377,0-.4,0,0-.01-.005-.026.008a3.321,3.321,0,0,0-.211,1.982l-.02,0a5.286,5.286,0,0,1-.119-1.187,5.24,5.24,0,0,1,.1-.674,1.157,1.157,0,0,0,.047-.5.023.023,0,0,0-.018-.008h0c-.007,0-.015.006-.024.017a4.8,4.8,0,0,0-.246,2.4l-.02,0a4.274,4.274,0,0,1-.129-1.1,3.956,3.956,0,0,1,.09-.73c.036-.18.059-.3.009-.319-.008,0-.017,0-.024.008a3.331,3.331,0,0,0-.223,2.163l-.02,0a3.415,3.415,0,0,1-.146-.843,2.478,2.478,0,0,1,.044-.45.6.6,0,0,0,.011-.31A.043.043,0,0,0,6.415,12.888Z"
      fill="#f2f2f2"/>
    <path
      d="M13.164,17.424a11.509,11.509,0,0,1-2.106-.754A10.737,10.737,0,0,1,9.9,15.822c-.054.063.076.334.288.561a1.858,1.858,0,0,0,.61.423,2.062,2.062,0,0,1-1.181-.578c-.555-.433-.828-1.09-.965-1.034s.464,1.08,1.237,1.592a5.184,5.184,0,0,1-.921-.753c-.349-.39-.662-1.024-.758-.926A4.31,4.31,0,0,0,9.726,17.02a4.239,4.239,0,0,1-.87-.687c-.426-.441-.571-.863-.683-.815s.311.98,1.358,1.728a3.387,3.387,0,0,1-.7-.492c-.273-.259-.433-.652-.546-.568s1.482,2.859,4.876,1.238"
      />
    <path
      d="M11.145,17.943a3.275,3.275,0,0,1-2.77-1.5c-.023-.038-.135-.231-.093-.262a.06.06,0,0,1,.049-.013c.063.01.134.109.225.235a2.359,2.359,0,0,0,.285.347,3.293,3.293,0,0,0,.554.411,3.146,3.146,0,0,1-1.25-1.61.045.045,0,0,1,.024-.039c.065-.028.132.073.244.239a3.863,3.863,0,0,0,.451.578,4.325,4.325,0,0,0,.693.576,4.718,4.718,0,0,1-1.366-1.757A.054.054,0,0,1,8.2,15.1a.04.04,0,0,1,.035-.013c.069.006.18.169.332.394a5.493,5.493,0,0,0,.4.545,4.092,4.092,0,0,0,.574.509,2.962,2.962,0,0,1-.927-1.31.046.046,0,0,1,.026-.041c.07-.028.164.1.3.292a3.608,3.608,0,0,0,.67.744,2.116,2.116,0,0,0,1.107.568,1.939,1.939,0,0,1-.55-.4c-.209-.224-.349-.5-.288-.575a.017.017,0,0,1,.014-.006h0c.028,0,.083.048.2.156a4.454,4.454,0,0,0,.954.7,11.523,11.523,0,0,0,2.1.753l.027.007-.025.012A4.707,4.707,0,0,1,11.145,17.943ZM8.321,16.184a.041.041,0,0,0-.027.01c-.013.013.031.155.2.394a3.3,3.3,0,0,0,1.555,1.152,4,4,0,0,0,3.081-.313,11.568,11.568,0,0,1-2.081-.748,4.5,4.5,0,0,1-.958-.7.9.9,0,0,0-.188-.151h0c-.047.056.076.319.288.547a1.873,1.873,0,0,0,.606.421l.07.027-.074-.008a2.089,2.089,0,0,1-1.186-.58,3.625,3.625,0,0,1-.675-.748c-.13-.179-.224-.308-.281-.285,0,0-.01,0-.012.024a3.309,3.309,0,0,0,1.252,1.551l-.011.017a5.284,5.284,0,0,1-.924-.756,5.275,5.275,0,0,1-.407-.547c-.138-.2-.257-.379-.317-.385a.023.023,0,0,0-.019.007.039.039,0,0,0,0,.029,4.8,4.8,0,0,0,1.521,1.869l-.011.017a4.332,4.332,0,0,1-.872-.689,3.934,3.934,0,0,1-.453-.581c-.1-.152-.17-.253-.219-.231-.008,0-.011.014-.011.022a3.326,3.326,0,0,0,1.371,1.687l-.01.018a3.4,3.4,0,0,1-.7-.494,2.383,2.383,0,0,1-.287-.349c-.085-.117-.157-.218-.212-.227Z"
      fill="#f2f2f2"/>
    <path
      d="M16.274,14.629a11.551,11.551,0,0,1-2.022.956,10.759,10.759,0,0,1-1.42.22c.007.082.291.182.6.193a1.85,1.85,0,0,0,.73-.132,2.06,2.06,0,0,1-1.243.426c-.7.086-1.357-.186-1.415-.049s1.093.435,2,.251a5.229,5.229,0,0,1-1.185.119c-.522-.029-1.191-.256-1.19-.118a4.319,4.319,0,0,0,2.426.279,4.21,4.21,0,0,1-1.1.129c-.613-.01-1.014-.206-1.06-.092a2.859,2.859,0,0,0,2.182.261,3.371,3.371,0,0,1-.841.145c-.376.01-.766-.154-.787-.016s3.07.974,4.323-2.572"
      />
    <path
      d="M12.864,17.4a2.8,2.8,0,0,1-.671-.076c-.044-.01-.26-.067-.252-.119a.061.061,0,0,1,.026-.044c.051-.037.172-.018.325.007a2.264,2.264,0,0,0,.446.044,3.187,3.187,0,0,0,.683-.1,3.138,3.138,0,0,1-2.022-.254.044.044,0,0,1-.011-.044c.026-.066.145-.042.341,0a4.044,4.044,0,0,0,.728.089,4.405,4.405,0,0,0,.9-.082,4.717,4.717,0,0,1-2.208-.277.057.057,0,0,1-.024-.039.042.042,0,0,1,.015-.034c.054-.045.247-.008.514.043a5.233,5.233,0,0,0,.672.1,4.152,4.152,0,0,0,.766-.046,2.962,2.962,0,0,1-1.582-.271.044.044,0,0,1-.011-.047c.03-.07.186-.046.422-.009a3.61,3.61,0,0,0,1,.052A2.114,2.114,0,0,0,14.1,15.9a1.935,1.935,0,0,1-.671.107c-.306-.011-.6-.109-.61-.2a.03.03,0,0,1,.005-.015c.018-.02.091-.025.255-.033a4.431,4.431,0,0,0,1.167-.183,11.664,11.664,0,0,0,2.02-.954l.024-.015-.009.027a3.947,3.947,0,0,1-2.152,2.515A3.37,3.37,0,0,1,12.864,17.4Zm-.806-.24a.138.138,0,0,0-.079.017.045.045,0,0,0-.018.031c0,.018.13.087.419.134.461.075,2.807.3,3.875-2.685a11.49,11.49,0,0,1-2,.943,4.469,4.469,0,0,1-1.172.183.826.826,0,0,0-.241.027c.006.073.28.172.591.183a1.863,1.863,0,0,0,.726-.131l.069-.03-.058.047a2.093,2.093,0,0,1-1.249.428,3.573,3.573,0,0,1-1.006-.052c-.218-.034-.377-.059-.4,0,0,0-.005.011.007.026a3.325,3.325,0,0,0,1.983.211l0,.02a5.169,5.169,0,0,1-1.187.119,5.253,5.253,0,0,1-.675-.1,1.177,1.177,0,0,0-.5-.048.025.025,0,0,0-.008.018c0,.007.006.015.017.025a4.814,4.814,0,0,0,2.4.246l0,.019a4.209,4.209,0,0,1-1.042.13h-.062a3.849,3.849,0,0,1-.73-.09c-.181-.035-.3-.059-.319-.008,0,.007,0,.017.008.024a3.345,3.345,0,0,0,2.163.223l0,.019a3.416,3.416,0,0,1-.844.146,2.4,2.4,0,0,1-.449-.044A1.719,1.719,0,0,0,12.058,17.155Z"
      fill="#f2f2f2"/>
    <path
      d="M16.5,10.454a11.536,11.536,0,0,1-.754,2.106,10.982,10.982,0,0,1-.848,1.159c.063.053.334-.077.561-.288a1.868,1.868,0,0,0,.423-.61A2.06,2.06,0,0,1,15.3,14c-.433.555-1.09.828-1.034.966s1.08-.465,1.592-1.238a5.212,5.212,0,0,1-.753.922c-.39.349-1.024.661-.926.758a4.316,4.316,0,0,0,1.913-1.518,4.209,4.209,0,0,1-.687.87c-.441.426-.863.571-.815.684s.98-.311,1.728-1.359a3.379,3.379,0,0,1-.492.7c-.259.273-.651.432-.568.545s2.859-1.482,1.238-4.875"
      />
    <path
      d="M14.635,15.473h-.014a.044.044,0,0,1-.039-.023c-.028-.065.073-.133.239-.244a3.985,3.985,0,0,0,.578-.451,4.37,4.37,0,0,0,.576-.693,4.729,4.729,0,0,1-1.757,1.366.053.053,0,0,1-.045-.011.043.043,0,0,1-.013-.035c.006-.07.169-.18.394-.333a5.341,5.341,0,0,0,.545-.405,4.092,4.092,0,0,0,.509-.574,3.047,3.047,0,0,1-1.3.927H14.3a.044.044,0,0,1-.041-.026c-.029-.07.1-.163.292-.3a3.587,3.587,0,0,0,.744-.671,2.113,2.113,0,0,0,.568-1.107,1.939,1.939,0,0,1-.4.55c-.224.209-.5.349-.575.288a.016.016,0,0,1-.006-.013c0-.028.046-.083.156-.2a4.454,4.454,0,0,0,.7-.954,11.609,11.609,0,0,0,.753-2.1l.007-.027.012.025a3.946,3.946,0,0,1,.257,3.3,3.269,3.269,0,0,1-1.25,1.491c-.039.024-.231.136-.262.093a.063.063,0,0,1-.013-.049c.01-.063.11-.134.236-.225a2.4,2.4,0,0,0,.346-.284,3.242,3.242,0,0,0,.411-.556A3.251,3.251,0,0,1,14.635,15.473Zm1.45-1.588.017.011a4.271,4.271,0,0,1-.689.872,3.934,3.934,0,0,1-.581.453c-.152.1-.253.17-.231.22,0,.007.014.01.022.011h.011A3.41,3.41,0,0,0,16.31,14.08l.018.011a3.454,3.454,0,0,1-.494.7,2.449,2.449,0,0,1-.349.287c-.117.084-.218.157-.227.211a.042.042,0,0,0,.009.034c.013.013.155-.03.395-.2a3.3,3.3,0,0,0,1.151-1.555,4,4,0,0,0-.313-3.081,11.54,11.54,0,0,1-.748,2.081,4.448,4.448,0,0,1-.7.958.8.8,0,0,0-.151.19c.056.047.32-.077.547-.289a1.863,1.863,0,0,0,.421-.606l.027-.069-.008.074a2.1,2.1,0,0,1-.58,1.186,3.589,3.589,0,0,1-.748.674c-.179.13-.308.225-.285.281,0,0,0,.011.024.013h.009a3.387,3.387,0,0,0,1.542-1.253l.017.011a5.245,5.245,0,0,1-.756.924,5.136,5.136,0,0,1-.547.407c-.2.138-.379.257-.385.318a.021.021,0,0,0,.007.018.038.038,0,0,0,.029.006A4.817,4.817,0,0,0,16.085,13.885Z"
      fill="#f2f2f2"/>
  </g>
</svg>
