<?xml version="1.0" encoding="utf-8"?>
<svg xmlns="http://www.w3.org/2000/svg" viewBox="0 0 149.3 157.7" xml:space="preserve">
<style type="text/css">
	.st0 {
    fill: #A7A9AC;
  }

  .st26 {
    fill: #A41737;
  }

  .st28 {
    fill: #E6B122;
  }
</style>
  <g>
	<g>
		<polygon class="st0" points="32.2,69.6 31,69.7 31.7,68.6 31.2,68.3 30.6,69.5 29.9,68.3 29.4,68.6 30.2,69.7 28.9,69.6
			28.9,70.2 30.2,70.1 29.5,71.2 30,71.5 30.6,70.3 31.2,71.5 31.7,71.2 31,70.1 32.2,70.2 		"/>
    <polygon class="st0" points="63.1,34.9 62,34.9 62.6,33.9 62.2,33.7 61.6,34.7 61.1,33.7 60.6,34 61.3,34.9 60.1,34.8 60.1,35.3
			61.3,35.3 60.6,36.2 61.1,36.5 61.6,35.5 62.2,36.5 62.6,36.2 62,35.3 63.1,35.4 		"/>
    <polygon class="st0" points="29.1,34.3 28.2,34.4 28.7,33.6 28.4,33.4 28,34.2 27.5,33.4 27.2,33.7 27.7,34.4 26.8,34.3
			26.8,34.7 27.7,34.7 27.2,35.4 27.6,35.6 28,34.8 28.4,35.6 28.7,35.4 28.2,34.7 29.1,34.7 		"/>
    <path class="st28" d="M97.9,45.1c-1,0-1.8,0.8-1.8,1.8c0,1,0.8,1.8,1.8,1.8c1,0,1.8-0.8,1.8-1.8C99.7,45.9,98.9,45.1,97.9,45.1z
			 M97.9,47.7c-0.5,0-0.9-0.4-0.9-0.9c0-0.5,0.4-0.9,0.9-0.9c0.5,0,0.9,0.4,0.9,0.9C98.7,47.3,98.4,47.7,97.9,47.7z"/>
    <path class="st28" d="M118.8,34.5c-0.7,0-1.3,0.6-1.3,1.3c0,0.7,0.6,1.3,1.3,1.3c0.7,0,1.3-0.6,1.3-1.3
			C120,35,119.5,34.5,118.8,34.5z M118.8,36.3c-0.3,0-0.6-0.3-0.6-0.6s0.3-0.6,0.6-0.6c0.3,0,0.6,0.3,0.6,0.6S119.1,36.3,118.8,36.3
			z"/>
    <path class="st28" d="M86.1,30.2c-0.7,0-1.3,0.6-1.3,1.3c0,0.7,0.6,1.3,1.3,1.3c0.7,0,1.3-0.6,1.3-1.3
			C87.4,30.7,86.8,30.2,86.1,30.2z M86.1,32c-0.3,0-0.6-0.3-0.6-0.6s0.3-0.6,0.6-0.6c0.3,0,0.6,0.3,0.6,0.6S86.5,32,86.1,32z"/>
    <path class="st28" d="M41.7,50.2c-0.7,0-1.3,0.6-1.3,1.3c0,0.7,0.6,1.3,1.3,1.3c0.7,0,1.3-0.6,1.3-1.3
			C42.9,50.8,42.3,50.2,41.7,50.2z M41.7,52.1c-0.3,0-0.6-0.3-0.6-0.6s0.3-0.6,0.6-0.6s0.6,0.3,0.6,0.6S42,52.1,41.7,52.1z"/>
    <path class="st28" d="M121.2,72.1c-0.7,0-1.3,0.6-1.3,1.3c0,0.7,0.6,1.3,1.3,1.3c0.7,0,1.3-0.6,1.3-1.3
			C122.4,72.6,121.9,72.1,121.2,72.1z M121.2,73.9c-0.3,0-0.6-0.3-0.6-0.6c0-0.3,0.3-0.6,0.6-0.6c0.3,0,0.6,0.3,0.6,0.6
			C121.8,73.7,121.5,73.9,121.2,73.9z"/>
    <polygon class="st0" points="113.7,60.4 112.5,60.5 113.2,59.4 112.7,59.1 112.1,60.3 111.4,59.1 110.9,59.4 111.7,60.5
			110.4,60.4 110.4,61 111.7,60.9 111,62 111.5,62.3 112.1,61.1 112.7,62.3 113.2,62 112.5,60.9 113.7,61 		"/>
	</g>
    <path class="st26" d="M83.8,68.2H60c-0.5,0-0.8-0.4-0.8-0.8l0,0c0-0.5,0.4-0.8,0.8-0.8h23.8c0.5,0,0.8,0.4,0.8,0.8l0,0
		C84.6,67.8,84.2,68.2,83.8,68.2z"/>
    <path class="st26" d="M83.8,74.6H60c-0.5,0-0.8-0.4-0.8-0.8l0,0c0-0.5,0.4-0.8,0.8-0.8h23.8c0.5,0,0.8,0.4,0.8,0.8l0,0
		C84.6,74.2,84.2,74.6,83.8,74.6z"/>
    <path class="st26" d="M83.8,81.1H60c-0.5,0-0.8-0.4-0.8-0.8l0,0c0-0.5,0.4-0.8,0.8-0.8h23.8c0.5,0,0.8,0.4,0.8,0.8l0,0
		C84.6,80.7,84.2,81.1,83.8,81.1z"/>
    <path class="st26" d="M75.7,93.4c0-0.4,0-0.7,0-1.1H60c-0.5,0-0.8,0.4-0.8,0.8c0,0.5,0.4,0.8,0.8,0.8h15.7
		C75.7,93.8,75.7,93.6,75.7,93.4z"/>
    <path class="st26"
          d="M78.2,85.8H60c-0.5,0-0.8,0.4-0.8,0.8c0,0.5,0.4,0.8,0.8,0.8h17.2C77.5,86.9,77.8,86.3,78.2,85.8z"/>
    <g>
		<path class="st26" d="M50.8,63.9c-0.5,0-0.9,0-1.3,0c-1.8,0-2.5,0.7-2.5,2.4c0,10.1,0,20.1,0,30.2c0,0.3,0,0.5,0,0.8
			c0.1,0.8,0.7,1.5,1.5,1.6c0.7,0.1,1.4,0,2.2,0c0-0.3,0-0.5,0-0.7c-0.5,0-0.9,0-1.3,0c-1.3,0-1.6-0.4-1.6-1.6c0-7.5,0-15,0-22.5
			c0-2.4,0-4.8,0-7.2c0-2.1,0.1-2.2,2.2-2.2c0.3,0,0.5,0,0.8,0C50.8,64.4,50.8,64.2,50.8,63.9z M45.7,93.4c-0.5,0-0.9,0-1.4,0
			c-1.3,0-1.4-0.1-1.4-1.4c0-6.2,0-12.4,0-18.6c0-0.9,0-1.9,0-2.8c0-0.8,0.2-1,1.1-1c0.6,0,1.1,0,1.7,0c0-0.3,0-0.5,0-0.8
			c-0.5,0-1,0-1.5,0c-1.5,0-2,0.5-2,2c0,6.3,0,12.6,0,19c0,0.9,0,1.9,0,2.8c0,1,0.6,1.6,1.6,1.6c0.6,0,1.2,0,1.7,0
			c0.1,0,0.1-0.1,0.2-0.1C45.7,93.9,45.7,93.7,45.7,93.4z"/>
	</g>
    <g>
		<g>
			<path class="st26" d="M78.4,102.5c-0.3,0-0.5,0.1-0.7,0.1c-7.3,0-14.6,0-21.9,0c-2.5,0-3.8-1.3-3.8-3.8c0-12.3,0-24.7,0-37
				c0-1.2,0.4-2.2,1.3-3.1c2.5-2.5,5-5,7.5-7.5c0.8-0.8,1.8-1.3,3-1.3c8,0,16,0,24.1,0c2.4,0,3.7,1.3,3.7,3.7c0,8.7,0,17.4,0,26.1
				c0,0.2,0,0.3,0,0.5c-0.7-0.1-1.3-0.1-2-0.2c0-0.2,0-0.5,0-0.7c0-8.6,0-17.2,0-25.7c0-1.5-0.1-1.6-1.6-1.6c-8.3,0-16.6,0-24.9,0
				c-0.2,0-0.4,0-0.6,0c0,0.3,0,0.5,0,0.7c0,1.4,0,2.8,0,4.1c0,2.2-1.4,3.6-3.6,3.6c-1.6,0-3.1,0-4.8,0c0,0.2,0,0.4,0,0.6
				c0,12.7,0,25.5,0,38.2c0,1,0.2,1.2,1.4,1.2c7,0,14,0,20.9,0c0.5,0,0.8,0.1,1,0.6C77.7,101.6,78,102,78.4,102.5z"/>
      <path class="st26" d="M83.8,104.4c-1.5,2-2.9,3.9-4.3,5.9c-0.9,1.2-1.8,2.5-2.7,3.7c-0.5,0.6-1.1,0.8-1.9,0.7
				c-0.7-0.2-1.1-0.7-1.3-1.4c-0.1-0.6,0.1-1.1,0.4-1.5c2.2-3,4.4-6,6.6-8.9c0.1-0.1,0.2-0.3,0.3-0.5c-2.7-2.8-3.8-6.2-3.3-10
				c0.4-2.8,1.7-5.2,3.8-7.1c4.3-3.9,10.8-4,15.3-0.4c4.5,3.6,5.6,10.1,2.7,15C96.6,104.9,89.9,107.5,83.8,104.4z M98.6,94
				c0.1-5.1-4-9.3-9.1-9.4c-5.1-0.1-9.3,4-9.4,9.1c-0.1,5.2,4,9.4,9.1,9.5C94.4,103.3,98.5,99.2,98.6,94z"/>
		</g>
      <path class="st26" d="M49.4,99.2c-0.3,0-0.6,0-0.8,0c-0.9-0.1-1.6-0.8-1.7-1.8c0-0.2,0-0.5,0-0.7l0-30.3c0-1.9,0.7-2.6,2.7-2.6
			h1.3c0.1,0,0.2,0.1,0.2,0.2v0.8c0,0.1-0.1,0.2-0.2,0.2H50c-1.9,0-2,0-2,2l0,29.7c0,1.2,0.3,1.4,1.4,1.4h1.3c0.1,0,0.2,0.1,0.2,0.2
			V99c0,0.1-0.1,0.2-0.2,0.2c-0.2,0-0.5,0-0.7,0S49.6,99.2,49.4,99.2z M43.7,94.4c-1.1,0-1.8-0.7-1.8-1.8c0-0.7,0-1.3,0-2l0-19.8
			c0-1.6,0.6-2.2,2.2-2.2h1.5c0.1,0,0.2,0.1,0.2,0.2v0.8c0,0.1-0.1,0.2-0.2,0.2l-1.7,0c-0.7,0-0.8,0.1-0.9,0.8c0,0.7,0,1.3,0,2
			l0,19.4c0,1.1,0,1.2,1.2,1.2h1.4c0.1,0,0.2,0.1,0.2,0.2v0.7c0,0.1,0,0.1-0.1,0.2c-0.1,0.1-0.2,0.1-0.3,0.1l-0.2,0
			c-0.3,0-0.7,0-1,0C44.2,94.4,43.9,94.4,43.7,94.4z"/>
      <path class="st26" d="M49.4,99.2c-0.3,0-0.6,0-0.8,0c-0.9-0.1-1.6-0.8-1.7-1.8c0-0.2,0-0.5,0-0.7l0-30.3c0-1.9,0.7-2.6,2.7-2.6
			h1.3c0.1,0,0.2,0.1,0.2,0.2v0.8c0,0.1-0.1,0.2-0.2,0.2H50c-1.9,0-2,0-2,2l0,29.7c0,1.2,0.3,1.4,1.4,1.4h1.3c0.1,0,0.2,0.1,0.2,0.2
			V99c0,0.1-0.1,0.2-0.2,0.2c-0.2,0-0.5,0-0.7,0S49.6,99.2,49.4,99.2z"/>
      <path class="st26" d="M43.7,94.4c-1.1,0-1.8-0.7-1.8-1.8c0-0.7,0-1.3,0-2l0-19.8c0-1.6,0.6-2.2,2.2-2.2h1.5c0.1,0,0.2,0.1,0.2,0.2
			v0.8c0,0.1-0.1,0.2-0.2,0.2l-1.7,0c-0.7,0-0.8,0.1-0.9,0.8c0,0.7,0,1.3,0,2l0,19.4c0,1.1,0,1.2,1.2,1.2h1.4c0.1,0,0.2,0.1,0.2,0.2
			v0.7c0,0.1,0,0.1-0.1,0.2c-0.1,0.1-0.2,0.1-0.3,0.1l-0.2,0c-0.3,0-0.7,0-1,0C44.1,94.4,43.9,94.4,43.7,94.4z"/>
	</g>
</g>
</svg>
