<svg xmlns="http://www.w3.org/2000/svg" viewBox="0 0 25 25">
  <style type="text/css">
    .st0 {
      fill: #A7A9AC;
    }

    .st1 {
      fill: #E6B122;
    }
  </style>
  <g>
    <polygon class="st0" points="2.6,10.8 2.3,10.8 2.5,10.6 2.4,10.5 2.2,10.8 2.1,10.5 2,10.6 2.1,10.8 1.9,10.8 1.9,10.9 2.2,10.9
		2,11.1 2.1,11.2 2.2,10.9 2.4,11.2 2.5,11.1 2.3,10.9 2.6,10.9 	"/>
    <polygon class="st0" points="9.5,3 9.3,3 9.4,2.8 9.3,2.7 9.2,3 9.1,2.7 9,2.8 9.1,3 8.9,3 8.9,3.1 9.1,3.1 9,3.3 9.1,3.4 9.2,3.1
		9.3,3.4 9.4,3.3 9.3,3.1 9.5,3.1 	"/>
    <polygon class="st0" points="1.9,2.9 1.7,2.9 1.8,2.7 1.7,2.7 1.6,2.8 1.5,2.7 1.5,2.7 1.6,2.9 1.4,2.9 1.4,3 1.6,3 1.5,3.1
		1.5,3.2 1.7,3 1.7,3.2 1.8,3.1 1.7,3 1.9,3 	"/>
    <path class="st1" d="M17.3,5.3c-0.2,0-0.4,0.2-0.4,0.4s0.2,0.4,0.4,0.4s0.4-0.2,0.4-0.4C17.7,5.5,17.5,5.3,17.3,5.3z M17.3,5.9
		c-0.1,0-0.2-0.1-0.2-0.2s0.1-0.2,0.2-0.2s0.2,0.1,0.2,0.2S17.4,5.9,17.3,5.9z"/>
    <path class="st1" d="M22,2.9c-0.2,0-0.3,0.1-0.3,0.3s0.1,0.3,0.3,0.3c0.2,0,0.3-0.1,0.3-0.3C22.3,3,22.2,2.9,22,2.9z M22,3.3
		c-0.1,0-0.1-0.1-0.1-0.1S22,3,22,3s0.1,0.1,0.1,0.1S22.1,3.3,22,3.3z"/>
    <path class="st1" d="M14.7,1.9c-0.2,0-0.3,0.1-0.3,0.3c0,0.2,0.1,0.3,0.3,0.3c0.2,0,0.3-0.1,0.3-0.3C15,2.1,14.9,1.9,14.7,1.9z
		 M14.7,2.3c-0.1,0-0.1-0.1-0.1-0.1c0-0.1,0.1-0.1,0.1-0.1c0.1,0,0.1,0.1,0.1,0.1C14.8,2.3,14.8,2.3,14.7,2.3z"/>
    <path class="st1" d="M4.7,6.4c-0.2,0-0.3,0.1-0.3,0.3C4.4,6.9,4.6,7,4.7,7C4.9,7,5,6.9,5,6.7C5,6.6,4.9,6.4,4.7,6.4z M4.7,6.9
		c-0.1,0-0.1-0.1-0.1-0.1s0.1-0.1,0.1-0.1c0.1,0,0.1,0.1,0.1,0.1S4.8,6.9,4.7,6.9z"/>
    <path class="st1" d="M22.6,11.4c-0.2,0-0.3,0.1-0.3,0.3c0,0.2,0.1,0.3,0.3,0.3c0.2,0,0.3-0.1,0.3-0.3
		C22.8,11.5,22.7,11.4,22.6,11.4z M22.6,11.8c-0.1,0-0.1-0.1-0.1-0.1c0-0.1,0.1-0.1,0.1-0.1s0.1,0.1,0.1,0.1
		C22.7,11.7,22.6,11.8,22.6,11.8z"/>
    <polygon class="st0" points="20.9,8.7 20.6,8.7 20.8,8.5 20.6,8.4 20.5,8.7 20.4,8.4 20.3,8.5 20.4,8.7 20.2,8.7 20.2,8.9
		20.4,8.8 20.3,9.1 20.4,9.2 20.5,8.9 20.7,9.2 20.8,9.1 20.6,8.8 20.9,8.9"/>
  </g>
</svg>
