<?xml version="1.0" encoding="utf-8"?>
<svg id="Layer_1" xmlns="http://www.w3.org/2000/svg" viewBox="0 0 149.3 157.7" xml:space="preserve">
<style type="text/css">
	.st0 {
    fill: #A7A9AC;
  }

  .st26 {
    fill: #A41737;
  }

  .st28 {
    fill: #E6B122;
  }
</style>
  <g>
	<g>
		<polygon class="st0" points="32.3,69.1 31,69.1 31.8,68 31.3,67.8 30.6,68.9 30,67.8 29.5,68.1 30.2,69.1 29,69 29,69.6
			30.3,69.6 29.5,70.6 30,70.9 30.7,69.8 31.3,70.9 31.8,70.6 31.1,69.6 32.3,69.7 		"/>
    <polygon class="st0" points="63.2,34.3 62,34.3 62.7,33.4 62.2,33.1 61.7,34.2 61.1,33.1 60.7,33.4 61.3,34.3 60.2,34.3
			60.2,34.8 61.4,34.7 60.7,35.7 61.2,35.9 61.7,34.9 62.3,35.9 62.7,35.7 62.1,34.7 63.2,34.8 		"/>
    <polygon class="st0" points="29.2,33.8 28.3,33.8 28.8,33.1 28.5,32.9 28,33.7 27.6,32.9 27.3,33.1 27.8,33.8 26.9,33.8
			26.9,34.2 27.8,34.1 27.3,34.9 27.6,35 28.1,34.3 28.5,35 28.8,34.8 28.3,34.1 29.2,34.2 		"/>
    <path class="st28" d="M97.9,44.5c-1,0-1.8,0.8-1.8,1.8c0,1,0.8,1.8,1.8,1.8c1,0,1.8-0.8,1.8-1.8C99.7,45.3,98.9,44.5,97.9,44.5z
			 M97.9,47.2c-0.5,0-0.9-0.4-0.9-0.9s0.4-0.9,0.9-0.9s0.9,0.4,0.9,0.9S98.4,47.2,97.9,47.2z"/>
    <path class="st28" d="M118.9,33.9c-0.7,0-1.3,0.6-1.3,1.3c0,0.7,0.6,1.3,1.3,1.3c0.7,0,1.3-0.6,1.3-1.3
			C120.1,34.5,119.5,33.9,118.9,33.9z M118.9,35.8c-0.3,0-0.6-0.3-0.6-0.6s0.3-0.6,0.6-0.6c0.3,0,0.6,0.3,0.6,0.6
			S119.2,35.8,118.9,35.8z"/>
    <path class="st28" d="M86.2,29.6c-0.7,0-1.3,0.6-1.3,1.3c0,0.7,0.6,1.3,1.3,1.3c0.7,0,1.3-0.6,1.3-1.3
			C87.4,30.2,86.9,29.6,86.2,29.6z M86.2,31.5c-0.3,0-0.6-0.3-0.6-0.6s0.3-0.6,0.6-0.6c0.3,0,0.6,0.3,0.6,0.6S86.5,31.5,86.2,31.5z"
    />
    <path class="st28" d="M41.7,49.7c-0.7,0-1.3,0.6-1.3,1.3c0,0.7,0.6,1.3,1.3,1.3c0.7,0,1.3-0.6,1.3-1.3
			C43,50.2,42.4,49.7,41.7,49.7z M41.7,51.5c-0.3,0-0.6-0.3-0.6-0.6s0.3-0.6,0.6-0.6s0.6,0.3,0.6,0.6S42.1,51.5,41.7,51.5z"/>
    <path class="st28" d="M121.3,71.5c-0.7,0-1.3,0.6-1.3,1.3c0,0.7,0.6,1.3,1.3,1.3c0.7,0,1.3-0.6,1.3-1.3
			C122.5,72.1,122,71.5,121.3,71.5z M121.3,73.4c-0.3,0-0.6-0.3-0.6-0.6c0-0.3,0.3-0.6,0.6-0.6c0.3,0,0.6,0.3,0.6,0.6
			C121.9,73.1,121.6,73.4,121.3,73.4z"/>
    <polygon class="st0" points="113.8,59.9 112.5,59.9 113.2,58.9 112.7,58.6 112.1,59.7 111.5,58.6 111,58.9 111.7,59.9 110.5,59.8
			110.5,60.4 111.8,60.4 111,61.4 111.5,61.7 112.1,60.6 112.8,61.7 113.3,61.4 112.6,60.4 113.8,60.4 		"/>
	</g>
    <g>
	<path class="st26" d="M84,94.6c4.2-2.7,7.1-7.4,7.1-12.8c0-8.4-6.8-15.1-15.1-15.1s-15.1,6.8-15.1,15.1c0,5.4,2.8,10.1,7,12.7
		c-9.1,3.3-15.6,12-15.6,22.2h3.9c0-10.9,8.8-19.7,19.7-19.7s19.7,8.8,19.7,19.7h3.9C99.4,106.6,92.9,98,84,94.6z M64.8,81.8
		c0-6.1,5-11.1,11.1-11.1c6.1,0,11.1,5,11.1,11.1c0,6.1-5,11.1-11.1,11.1C69.7,92.9,64.8,87.9,64.8,81.8z"/>
      <path class="st26" d="M103.8,84.7c4.2-2.7,7.1-7.4,7.1-12.8c0-8.4-6.8-15.1-15.1-15.1c-5.7,0-10.7,3.2-13.3,7.9
			c1.3,0.5,2.5,1.1,3.7,1.8c1.9-3.4,5.5-5.6,9.6-5.6c6.1,0,11.1,5,11.1,11.1c0,6.1-5,11.1-11.1,11.1c-0.5,0-0.9,0-1.4-0.1
			c-0.1,1.5-0.4,3-0.8,4.4c0.7-0.1,1.4-0.1,2-0.1c10.9,0,19.7,8.8,19.7,19.7h3.9C119.2,96.7,112.8,88.1,103.8,84.7z"/>
      <path class="st26" d="M47.6,84.7c-4.2-2.7-7.1-7.4-7.1-12.8c0-8.4,6.8-15.1,15.1-15.1c5.7,0,10.7,3.2,13.3,7.9
			c-1.3,0.5-2.5,1.1-3.7,1.8c-1.9-3.4-5.5-5.6-9.6-5.6c-6.1,0-11.1,5-11.1,11.1c0,6.1,5,11.1,11.1,11.1c0.5,0,0.9,0,1.4-0.1
			c0.1,1.5,0.4,3,0.8,4.4c-0.7-0.1-1.4-0.1-2-0.1c-10.9,0-19.7,8.8-19.7,19.7h-3.9C32.2,96.7,38.6,88.1,47.6,84.7z"/>
	</g>
</g>
</svg>
